<?xml version="1.0" encoding="utf-8"?>
<!-- Generator: Adobe Illustrator 17.0.1, SVG Export Plug-In . SVG Version: 6.00 Build 0)  -->
<!DOCTYPE svg PUBLIC "-//W3C//DTD SVG 1.1//EN" "http://www.w3.org/Graphics/SVG/1.1/DTD/svg11.dtd">
<svg version="1.1" xmlns="http://www.w3.org/2000/svg" xmlns:xlink="http://www.w3.org/1999/xlink" x="0px" y="0px" width="86px"
	 height="86px" viewBox="0 0 86 86" enable-background="new 0 0 86 86" xml:space="preserve">
<g id="Layer_2" display="none">
</g>
<g id="Layer_1">
	
		<linearGradient id="SVGID_1_" gradientUnits="userSpaceOnUse" x1="655.9025" y1="85.2325" x2="740.3701" y2="0.7649" gradientTransform="matrix(-1 0 0 1 741.1376 0)">
		<stop  offset="0" style="stop-color:#008C7E"/>
		<stop  offset="1" style="stop-color:#47B531"/>
	</linearGradient>
	<path fill="url(#SVGID_1_)" d="M1.723,0.4H43c23.583,0,42.7,19.066,42.7,42.595V84.18c0,0.784-0.637,1.42-1.423,1.42H43
		c-23.583,0-42.7-19.076-42.7-42.606V1.82C0.3,1.035,0.937,0.4,1.723,0.4z"/>
	<g>
		<g>
			<path fill="#80FFBA" d="M19.448,43.496l9.398-5.138c-0.007-0.013-0.015-0.025-0.022-0.038c5.091-2.733,7.133-9.098,5.805-14.338
				c-0.962-3.795-2.402-10.553-2.402-10.553s-5.823,0-9.916,0.001c-5.485,0.001-10.872,7.859-8.291,16.99
				C15.318,35.014,17.17,39.383,19.448,43.496z"/>
			<path fill="#80FFBA" d="M64.589,53.938c-4.985-1.253-11.172,0.762-14.046,5.064l-5.408,9.947
				c3.947,2.162,8.118,3.95,12.478,5.264c9.116,2.746,17.391-2.688,17.391-8.166c0-4.049-0.019-9.491-0.019-9.491
				S68.388,54.893,64.589,53.938z"/>
		</g>
		<path fill="#47F275" d="M50.181,59.579c-0.02,0.036-0.046,0.069-0.065,0.104c-7.923-4.304-13.492-9.47-18.383-16.702
			c-0.731-1.058-1.421-2.143-2.076-3.254c-0.28-0.462-0.558-0.927-0.834-1.406c0.006-0.003,0.011-0.007,0.018-0.011
			c-4.06-7.401-6.4-15.872-6.514-24.88c-0.005,0-0.012,0.001-0.017,0.001c-5.485,0.068-10.872,7.859-8.291,16.99
			c5.914,20.927,22.751,37.514,43.593,43.793c9.116,2.746,17.317-2.688,17.391-8.166c0-0.006,0-0.011,0-0.017
			C66.023,65.918,57.572,63.601,50.181,59.579z"/>
	</g>
</g>
</svg>
