<?xml version="1.0" encoding="utf-8"?>
<!-- Generator: Adobe Illustrator 17.0.1, SVG Export Plug-In . SVG Version: 6.00 Build 0)  -->
<!DOCTYPE svg PUBLIC "-//W3C//DTD SVG 1.1//EN" "http://www.w3.org/Graphics/SVG/1.1/DTD/svg11.dtd">
<svg version="1.1" xmlns="http://www.w3.org/2000/svg" xmlns:xlink="http://www.w3.org/1999/xlink" x="0px" y="0px" width="86px"
	 height="86px" viewBox="0 0 86 86" enable-background="new 0 0 86 86" xml:space="preserve">
<g id="Layer_2" display="none">
	<rect x="-141" y="-19" display="inline" fill="#32332F" width="497" height="300"/>
</g>
<g id="Layer_1">
	<radialGradient id="SVGID_1_" cx="43" cy="43" r="42.7" gradientUnits="userSpaceOnUse">
		<stop  offset="0" style="stop-color:#7B7B7D"/>
		<stop  offset="1" style="stop-color:#DADADA"/>
	</radialGradient>
	<circle fill="url(#SVGID_1_)" cx="43" cy="43" r="42.7"/>
	<g>
		<radialGradient id="SVGID_2_" cx="42.9444" cy="43.1111" r="32.0586" gradientUnits="userSpaceOnUse">
			<stop  offset="0.543" style="stop-color:#362936"/>
			<stop  offset="0.828" style="stop-color:#453545"/>
		</radialGradient>
		<path fill="url(#SVGID_2_)" d="M66,43c0,17.673-15.091,32-23,32c-17.673,0-32-14.327-32-32s14.327-32,32-32
			C50.909,11,66,25.327,66,43z"/>
	</g>
	<radialGradient id="SVGID_3_" cx="43.0125" cy="43" r="32.0186" gradientUnits="userSpaceOnUse">
		<stop  offset="0.2808" style="stop-color:#FF9859"/>
		<stop  offset="0.7043" style="stop-color:#F05200"/>
		<stop  offset="0.9194" style="stop-color:#FF5500"/>
		<stop  offset="1" style="stop-color:#FF8438"/>
	</radialGradient>
	<path fill="url(#SVGID_3_)" d="M75.025,43c0-17.687-14.338-32.025-32.025-32.025v64.05C60.687,75.025,75.025,60.687,75.025,43z"/>
	<circle opacity="0.2" fill="#FFFFFF" cx="43" cy="43" r="19.025"/>
	<path fill="#F7FFFF" d="M41.077,56V37H36v-2.522c1.377-0.297,2.001-0.626,3.019-1.135c0.92-0.46,2.155-1.625,3.022-2.343H46v25
		H41.077z"/>
</g>
</svg>
