<?xml version="1.0" encoding="utf-8"?>
<!-- Generator: Adobe Illustrator 17.0.1, SVG Export Plug-In . SVG Version: 6.00 Build 0)  -->
<!DOCTYPE svg PUBLIC "-//W3C//DTD SVG 1.1//EN" "http://www.w3.org/Graphics/SVG/1.1/DTD/svg11.dtd">
<svg version="1.1" xmlns="http://www.w3.org/2000/svg" xmlns:xlink="http://www.w3.org/1999/xlink" x="0px" y="0px" width="86px"
	 height="86px" viewBox="0 0 86 86" enable-background="new 0 0 86 86" xml:space="preserve">
<g id="Layer_2" display="none">
</g>
<g id="Layer_1">
	
		<linearGradient id="SVGID_1_" gradientUnits="userSpaceOnUse" x1="984.9211" y1="339.299" x2="1071.6023" y2="252.4663" gradientTransform="matrix(0 0.9756 -0.9739 0 331.1601 -960.1721)">
		<stop  offset="0.0054" style="stop-color:#65DEEB"/>
		<stop  offset="1" style="stop-color:#00A6D9"/>
	</linearGradient>
	<path fill="url(#SVGID_1_)" d="M85.7,84.277V43C85.7,19.417,66.582,0.3,43,0.3H1.723C0.937,0.3,0.3,0.937,0.3,1.723V43
		c0,23.583,19.118,42.7,42.7,42.7h41.277C85.063,85.7,85.7,85.063,85.7,84.277z"/>
	<g>
		<path opacity="0.3" fill="#F9F8D9" d="M47.355,74.551h25.621c1.104,0,1.998-0.891,1.998-1.991V44.724
			c0.031-0.579,0.05-1.162,0.05-1.75c0-17.604-14.327-31.876-32-31.876c-0.344,0-0.685,0.015-1.027,0.026
			c-0.294-0.17-0.632-0.275-0.997-0.275H13.023c-1.104,0-1.998,0.891-1.998,1.991V40.71c0,0.155,0.022,0.303,0.055,0.448
			c-0.034,0.602-0.055,1.207-0.055,1.817c0,17.604,14.327,31.876,32,31.876C44.495,74.85,45.938,74.743,47.355,74.551z"/>
	</g>
	<g>
		
			<path fill="none" stroke="#F7FFFF" stroke-width="10.7278" stroke-linecap="round" stroke-linejoin="round" stroke-miterlimit="10" d="
			M26.093,63.876c0,0,0.435-11.523,12.273-11.523c16.495,0,27.967,13.247,27.967,13.247"/>
		<circle fill="#F7FFFF" cx="42.446" cy="26.057" r="8.39"/>
		
			<path fill="none" stroke="#F7FFFF" stroke-width="9.9616" stroke-linecap="round" stroke-linejoin="round" stroke-miterlimit="10" d="
			M19.717,19.6c0,0,7.063,13.676,19.979,18.147c14.021,4.853,26.21,0.96,26.21,0.96"/>
		<path fill="#F7FFFF" d="M46.529,40.636c0-3.962-3.212-7.174-7.173-7.174c-3.962,0-7.174,3.212-7.174,7.174
			c0,2.27,0.108,6.003,0.108,7.676c0,3.632,3.434,6.372,7.065,6.372s5.421-2.74,5.421-6.372
			C44.776,46.639,46.529,42.906,46.529,40.636z"/>
	</g>
</g>
</svg>
