<?xml version="1.0" encoding="utf-8"?>
<!-- Generator: Adobe Illustrator 17.0.1, SVG Export Plug-In . SVG Version: 6.00 Build 0)  -->
<!DOCTYPE svg PUBLIC "-//W3C//DTD SVG 1.1//EN" "http://www.w3.org/Graphics/SVG/1.1/DTD/svg11.dtd">
<svg version="1.1" xmlns="http://www.w3.org/2000/svg" xmlns:xlink="http://www.w3.org/1999/xlink" x="0px" y="0px" width="86px"
	 height="86px" viewBox="0 0 86 86" enable-background="new 0 0 86 86" xml:space="preserve">
<g id="Layer_2" display="none">
</g>
<g id="Layer_1">
	
		<radialGradient id="SVGID_1_" cx="-237.19" cy="696.3833" r="42.7985" gradientTransform="matrix(0 0.9974 -0.9977 0 737.7816 279.5606)" gradientUnits="userSpaceOnUse">
		<stop  offset="0" style="stop-color:#7B7B7D"/>
		<stop  offset="1" style="stop-color:#DADADA"/>
	</radialGradient>
	<path fill="url(#SVGID_1_)" d="M84.277,85.674c0.786,0,1.423-0.637,1.423-1.423c0,0,0-40.629,0-41.264
		C85.7,19.411,66.583,0.3,43,0.3C19.418,0.3,0.3,19.411,0.3,42.987S19.418,85.675,43,85.675
		C43.636,85.675,84.277,85.674,84.277,85.674z"/>
	<linearGradient id="SVGID_2_" gradientUnits="userSpaceOnUse" x1="61.4395" y1="61.445" x2="84.6982" y2="84.7037">
		<stop  offset="0" style="stop-color:#616360"/>
		<stop  offset="1" style="stop-color:#E7E4CD"/>
	</linearGradient>
	<path fill="url(#SVGID_2_)" d="M85.7,82.3v-7.269L69.447,58.783c-1.468-1.469-3.873-1.469-5.343,0l-5.33,5.328
		c-1.47,1.469-1.47,3.873,0,5.342L75.026,85.7h7.273C84.169,85.7,85.7,84.17,85.7,82.3z"/>
	<path opacity="0.5" fill="#84FFFF" d="M43.187,64.392c-11.687,0-21.196-9.507-21.196-21.192c0-11.684,9.509-21.191,21.196-21.191
		c11.688,0,21.197,9.507,21.197,21.191C64.384,54.885,54.875,64.392,43.187,64.392z"/>
	<path fill="#88817F" d="M43.187,11.092c-17.738,0-32.118,14.375-32.118,32.108c0,17.733,14.38,32.109,32.118,32.109
		c17.739,0,32.119-14.375,32.119-32.109C75.306,25.468,60.926,11.092,43.187,11.092z M43.187,64.223
		c-11.594,0-21.027-9.431-21.027-21.023c0-11.591,9.434-21.022,21.027-21.022c11.595,0,21.029,9.431,21.029,21.022
		C64.216,54.792,54.782,64.223,43.187,64.223z"/>
	<g opacity="0.9">
		<path opacity="0.8" fill="#FFFFFF" d="M38.633,36.736c1.196-0.811,2.519-1.275,4.041-1.396c0.542-0.044,0.686-0.562,0.686-0.808
			l0.014-6.442c0-0.231-0.276-0.643-0.825-0.616c-3.616,0.179-6.804,1.429-9.438,3.573c-0.326,0.265-0.25,0.822-0.002,1.043
			l4.469,4.468C37.738,36.8,38.335,36.938,38.633,36.736z"/>
		<path opacity="0.8" fill="#FFFFFF" d="M30.506,33.651c-2.173,2.683-3.455,5.848-3.587,9.538c-0.017,0.473,0.461,0.726,0.793,0.726
			h6.327c0.17,0.001,0.708-0.139,0.737-0.607c0.094-1.509,0.574-2.837,1.348-4.036c0.385-0.597,0.154-0.914-0.019-1.063
			l-4.596-4.594C31.322,33.419,30.765,33.331,30.506,33.651z"/>
	</g>
</g>
</svg>
