<?xml version="1.0" encoding="utf-8"?>
<!-- Generator: Adobe Illustrator 17.0.1, SVG Export Plug-In . SVG Version: 6.00 Build 0)  -->
<!DOCTYPE svg PUBLIC "-//W3C//DTD SVG 1.1//EN" "http://www.w3.org/Graphics/SVG/1.1/DTD/svg11.dtd">
<svg version="1.1" xmlns="http://www.w3.org/2000/svg" xmlns:xlink="http://www.w3.org/1999/xlink" x="0px" y="0px" width="86px"
	 height="86px" viewBox="0 0 86 86" enable-background="new 0 0 86 86" xml:space="preserve">
<g id="Layer_2" display="none">
</g>
<g id="Layer_1">
	
		<radialGradient id="SVGID_1_" cx="481.8537" cy="348.9771" r="44.7903" gradientTransform="matrix(0 0.953 -0.9513 0 374.8925 -416.2066)" gradientUnits="userSpaceOnUse">
		<stop  offset="0" style="stop-color:#6EFFF8"/>
		<stop  offset="1" style="stop-color:#009DFF"/>
	</radialGradient>
	<path fill="url(#SVGID_1_)" d="M85.521,84.261V43c0-23.574-19.078-42.683-42.611-42.683H1.72c-0.784,0-1.42,0.637-1.42,1.423V43
		c0,23.574,19.078,42.684,42.611,42.684h41.19C84.885,85.684,85.521,85.046,85.521,84.261z"/>
	<g opacity="0.6">
		<path fill="#F3F9E2" d="M43.793,13.043c-0.429-0.858-1.128-0.858-1.555,0l-4.74,9.506c-0.426,0.858,0.006,1.558,0.962,1.558h9.113
			c0.956,0,1.387-0.699,0.958-1.558L43.793,13.043z"/>
		<path fill="#F3F9E2" d="M47.572,61.397h-9.113c-0.956,0-1.388,0.701-0.962,1.558l4.74,9.507c0.428,0.856,1.127,0.856,1.555,0
			l4.738-9.507C48.959,62.098,48.528,61.397,47.572,61.397z"/>
		<path fill="#F3F9E2" d="M72.646,41.973l-9.481-4.751c-0.857-0.429-1.554,0.004-1.554,0.961v9.139c0,0.958,0.697,1.391,1.554,0.962
			l9.481-4.752C73.5,43.103,73.5,42.401,72.646,41.973z"/>
		<path fill="#F3F9E2" d="M24.42,47.322v-9.139c0-0.957-0.7-1.39-1.555-0.961l-9.481,4.751c-0.855,0.428-0.855,1.13,0,1.558
			l9.481,4.752C23.721,48.713,24.42,48.28,24.42,47.322z"/>
		<path fill="#F3F9E2" d="M59.387,32.8c0.674,0.676,1.475,0.488,1.778-0.421l3.352-10.083c0.302-0.909-0.191-1.404-1.098-1.1
			l-10.056,3.36c-0.908,0.302-1.094,1.105-0.42,1.783L59.387,32.8z"/>
		<path fill="#F3F9E2" d="M26.643,52.707c-0.676-0.677-1.475-0.489-1.778,0.421l-3.351,10.084c-0.303,0.907,0.191,1.404,1.098,1.1
			l10.057-3.363c0.907-0.301,1.094-1.104,0.419-1.782L26.643,52.707z"/>
		<path fill="#F3F9E2" d="M61.164,53.127c-0.302-0.91-1.103-1.098-1.778-0.421l-6.445,6.461c-0.674,0.678-0.488,1.481,0.42,1.782
			l10.056,3.363c0.907,0.302,1.399-0.193,1.098-1.101L61.164,53.127z"/>
		<path fill="#F3F9E2" d="M32.669,24.555l-10.057-3.363c-0.906-0.302-1.401,0.193-1.098,1.103l3.351,10.083
			c0.303,0.91,1.101,1.098,1.778,0.421l6.445-6.461C33.763,25.661,33.576,24.858,32.669,24.555z"/>
	</g>
	<g opacity="0.5">
		<path fill="#EEEFEC" d="M32.395,15.006c-0.723-0.628-1.369-0.36-1.438,0.596l-0.751,10.6c-0.066,0.957,0.601,1.438,1.483,1.072
			l8.421-3.497c0.882-0.366,1.014-1.178,0.293-1.808L32.395,15.006z"/>
		<path fill="#EEEFEC" d="M54.342,58.229l-8.419,3.498c-0.883,0.364-1.016,1.179-0.292,1.807l8.006,6.965
			c0.724,0.627,1.366,0.359,1.436-0.596L55.822,59.3C55.891,58.345,55.222,57.863,54.342,58.229z"/>
		<path fill="#EEEFEC" d="M70.092,30.664l-10.573-0.755c-0.954-0.067-1.433,0.602-1.068,1.485l3.49,8.445
			c0.364,0.886,1.175,1.017,1.802,0.293l6.947-8.029C71.315,31.378,71.046,30.73,70.092,30.664z"/>
		<path fill="#EEEFEC" d="M27.581,54.108l-3.492-8.442c-0.363-0.885-1.176-1.017-1.803-0.294l-6.946,8.028
			c-0.624,0.723-0.356,1.372,0.596,1.44l10.575,0.755C27.464,55.663,27.942,54.994,27.581,54.108z"/>
		<path fill="#EEEFEC" d="M54.342,27.275c0.882,0.365,1.55-0.116,1.48-1.071l-0.749-10.602c-0.07-0.955-0.713-1.224-1.436-0.596
			l-8.006,6.964c-0.724,0.629-0.591,1.442,0.292,1.808L54.342,27.275z"/>
		<path fill="#EEEFEC" d="M31.69,58.229c-0.883-0.366-1.551,0.115-1.483,1.071l0.753,10.602c0.066,0.955,0.712,1.224,1.433,0.596
			l8.009-6.963c0.721-0.628,0.589-1.442-0.293-1.808L31.69,58.229z"/>
		<path fill="#EEEFEC" d="M63.742,45.375c-0.627-0.725-1.438-0.593-1.802,0.292l-3.488,8.442c-0.367,0.884,0.112,1.555,1.068,1.485
			l10.574-0.753c0.952-0.068,1.22-0.714,0.595-1.438L63.742,45.375z"/>
		<path fill="#EEEFEC" d="M26.512,29.911l-10.575,0.752c-0.953,0.066-1.22,0.714-0.595,1.437l6.946,8.031
			c0.627,0.724,1.438,0.591,1.804-0.294l3.489-8.442C27.944,30.511,27.464,29.843,26.512,29.911z"/>
	</g>
	<linearGradient id="SVGID_2_" gradientUnits="userSpaceOnUse" x1="28.1058" y1="27.843" x2="57.9244" y2="57.6616">
		<stop  offset="0" style="stop-color:#FFFFFF"/>
		<stop  offset="1" style="stop-color:#F3EDD1"/>
	</linearGradient>
	<ellipse fill="url(#SVGID_2_)" cx="43.015" cy="42.752" rx="21.057" ry="21.112"/>
	<path opacity="0.6" fill="#FFFFFF" d="M69.277,42.829c-0.29,0-0.572,0.029-0.858,0.044c-0.1,0.007-0.201,0.007-0.301,0.016
		c-6.702,0.477-12.285,5.032-14.372,11.249c-0.189-0.013-0.377-0.029-0.569-0.029c-6.007,0-10.877,4.952-10.877,11.06
		s4.87,11.06,10.877,11.06c0.463,0,30.505,0,30.505,0c1.068,0,1.934-0.88,1.934-1.966V61.829c0.054-0.379,0.082-1.324,0.085-2.291
		c0-0.003,0-0.006,0-0.009C85.7,50.306,78.347,42.829,69.277,42.829z"/>
</g>
</svg>
