<?xml version="1.0" encoding="utf-8"?>
<!-- Generator: Adobe Illustrator 17.0.1, SVG Export Plug-In . SVG Version: 6.00 Build 0)  -->
<!DOCTYPE svg PUBLIC "-//W3C//DTD SVG 1.1//EN" "http://www.w3.org/Graphics/SVG/1.1/DTD/svg11.dtd">
<svg version="1.1" xmlns="http://www.w3.org/2000/svg" xmlns:xlink="http://www.w3.org/1999/xlink" x="0px" y="0px" width="86px"
	 height="86px" viewBox="0 0 86 86" enable-background="new 0 0 86 86" xml:space="preserve">
<g id="Layer_2" display="none">
</g>
<g id="Layer_1">
	
		<radialGradient id="SVGID_1_" cx="43.2274" cy="43.2243" r="42.7486" gradientTransform="matrix(0.9977 0 0 0.9977 -0.1277 -0.1249)" gradientUnits="userSpaceOnUse">
		<stop  offset="0" style="stop-color:#7B7B7D"/>
		<stop  offset="1" style="stop-color:#DADADA"/>
	</radialGradient>
	<path fill="url(#SVGID_1_)" d="M1.772,0.35c-0.785,0-1.422,0.637-1.422,1.422v82.457c0,0.785,0.636,1.422,1.422,1.422H43
		c23.556,0,42.65-19.096,42.65-42.65V1.771c0-0.785-0.696-1.422-1.481-1.422H1.772z"/>
	<g>
		<path fill="#F9F8D9" d="M10.192,85.65h32.382C66.42,85.65,85.75,66.554,85.75,43V26.337H10.192V85.65z"/>
	</g>
	<path opacity="0.8" fill="#661D87" d="M37.148,58.924c0,0.477,0.387,0.863,0.863,0.863h7.988c0.478,0,0.864-0.387,0.864-0.863
		v-7.989c0-0.476-0.387-0.863-0.864-0.863h-7.988c-0.476,0-0.863,0.387-0.863,0.863V58.924z"/>
	<linearGradient id="SVGID_2_" gradientUnits="userSpaceOnUse" x1="10" y1="19" x2="86" y2="19">
		<stop  offset="0" style="stop-color:#FF4747"/>
		<stop  offset="1" style="stop-color:#FF9666"/>
	</linearGradient>
	<path fill="url(#SVGID_2_)" d="M86,11H11.695C10.759,11,10,11.778,10,12.738V27h76V11z"/>
	<g>
		<path fill="#FFA6A3" d="M63.86,37.148h7.988c0.478,0,0.864,0.387,0.864,0.863V46c0,0.477-0.386,0.863-0.864,0.863H63.86
			c-0.477,0-0.863-0.387-0.863-0.863v-7.989C62.997,37.535,63.384,37.148,63.86,37.148z"/>
		<path fill="#FFA6A3" d="M50.936,37.148h7.987c0.478,0,0.865,0.387,0.865,0.863V46c0,0.477-0.387,0.863-0.865,0.863h-7.987
			c-0.477,0-0.863-0.387-0.863-0.863v-7.989C50.073,37.535,50.459,37.148,50.936,37.148z"/>
		<path fill="#FFA6A3" d="M63.86,50.072h7.988c0.478,0,0.864,0.387,0.864,0.863v7.989c0,0.477-0.386,0.863-0.864,0.863H63.86
			c-0.477,0-0.863-0.387-0.863-0.863v-7.989C62.997,50.459,63.384,50.072,63.86,50.072z"/>
		<path fill="#FFA6A3" d="M50.936,50.072h7.987c0.478,0,0.865,0.387,0.865,0.863v7.989c0,0.477-0.387,0.863-0.865,0.863h-7.987
			c-0.477,0-0.863-0.387-0.863-0.863v-7.989C50.073,50.459,50.459,50.072,50.936,50.072z"/>
		<path fill="#FFA6A3" d="M50.936,62.997h7.987c0.478,0,0.865,0.387,0.865,0.863v7.989c0,0.477-0.387,0.863-0.865,0.863h-7.987
			c-0.477,0-0.863-0.387-0.863-0.863V63.86C50.073,63.384,50.459,62.997,50.936,62.997z"/>
		<path fill="#FFA6A3" d="M38.012,37.148h7.988c0.478,0,0.864,0.387,0.864,0.863V46c0,0.477-0.387,0.863-0.864,0.863h-7.988
			c-0.476,0-0.863-0.387-0.863-0.863v-7.989C37.148,37.535,37.535,37.148,38.012,37.148z"/>
		<path fill="#FFA6A3" d="M25.087,37.171h7.988c0.478,0,0.864,0.387,0.864,0.863v7.989c0,0.477-0.386,0.863-0.864,0.863h-7.988
			c-0.477,0-0.863-0.387-0.863-0.863v-7.989C24.224,37.558,24.611,37.171,25.087,37.171z"/>
		<path fill="#FFA6A3" d="M25.087,50.072h7.988c0.478,0,0.864,0.387,0.864,0.863v7.989c0,0.477-0.386,0.863-0.864,0.863h-7.988
			c-0.477,0-0.863-0.387-0.863-0.863v-7.989C24.224,50.459,24.611,50.072,25.087,50.072z"/>
		<path fill="#FFA6A3" d="M38.012,62.997h7.988c0.478,0,0.864,0.387,0.864,0.863v7.989c0,0.477-0.387,0.863-0.864,0.863h-7.988
			c-0.476,0-0.863-0.387-0.863-0.863V63.86C37.148,63.384,37.535,62.997,38.012,62.997z"/>
		<path fill="#FFA6A3" d="M25.087,62.997h7.988c0.478,0,0.864,0.387,0.864,0.863v7.989c0,0.477-0.386,0.863-0.864,0.863h-7.988
			c-0.477,0-0.863-0.387-0.863-0.863V63.86C24.224,63.384,24.611,62.997,25.087,62.997z"/>
	</g>
</g>
</svg>
