<?xml version="1.0" encoding="utf-8"?>
<!-- Generator: Adobe Illustrator 17.0.1, SVG Export Plug-In . SVG Version: 6.00 Build 0)  -->
<!DOCTYPE svg PUBLIC "-//W3C//DTD SVG 1.1//EN" "http://www.w3.org/Graphics/SVG/1.1/DTD/svg11.dtd">
<svg version="1.1" xmlns="http://www.w3.org/2000/svg" xmlns:xlink="http://www.w3.org/1999/xlink" x="0px" y="0px" width="86px"
	 height="86px" viewBox="0 0 86 86" enable-background="new 0 0 86 86" xml:space="preserve">
<g id="Layer_2" display="none">
</g>
<g id="Layer_1">
	
		<linearGradient id="SVGID_1_" gradientUnits="userSpaceOnUse" x1="746.1491" y1="91.0476" x2="832.4243" y2="4.6217" gradientTransform="matrix(0 0.9756 -0.9739 0 89.5862 -727.0281)">
		<stop  offset="0.0054" style="stop-color:#51EAEE"/>
		<stop  offset="1" style="stop-color:#00B4E6"/>
	</linearGradient>
	<path fill="url(#SVGID_1_)" d="M85.5,84.083V43C85.5,19.527,66.471,0.5,43,0.5H1.917C1.134,0.5,0.5,1.134,0.5,1.917V43
		c0,23.473,19.029,42.5,42.5,42.5h41.083C84.866,85.5,85.5,84.866,85.5,84.083z"/>
	
		<linearGradient id="SVGID_2_" gradientUnits="userSpaceOnUse" x1="312.5327" y1="9.6047" x2="249.6547" y2="72.4827" gradientTransform="matrix(4.489700e-011 -1 1 4.489700e-011 1.95 324.1)">
		<stop  offset="0.0054" style="stop-color:#51EAEE"/>
		<stop  offset="1" style="stop-color:#00B4E6"/>
	</linearGradient>
	<path fill="url(#SVGID_2_)" d="M12.977,10.975c-1.105,0-2.002,0.895-2.002,2c0,0,0,29.435,0,30.025
		c0,17.687,14.299,32.025,32,32.025c0.345,0,30.048,0,30.048,0c1.105,0,2.002-0.895,2.002-2c0,0,0-29.412,0-30.025
		c0-17.686-14.349-32.025-32.05-32.025C41.503,10.975,12.977,10.975,12.977,10.975z"/>
	<g>
		<linearGradient id="SVGID_3_" gradientUnits="userSpaceOnUse" x1="74.4327" y1="74.4453" x2="11.5547" y2="11.5673">
			<stop  offset="0.0054" style="stop-color:#1E87FF"/>
			<stop  offset="1" style="stop-color:#00C8DE"/>
		</linearGradient>
		<path fill="url(#SVGID_3_)" d="M12.977,10.975c-1.105,0-2.002,0.895-2.002,2c0,0,0,29.435,0,30.025
			c0,17.687,14.299,32.025,32,32.025c0.345,0,30.048,0,30.048,0c1.105,0,2.002-0.895,2.002-2c0,0,0-29.412,0-30.025
			c0-17.686-14.349-32.025-32.05-32.025C41.503,10.975,12.977,10.975,12.977,10.975z"/>
	</g>
	<linearGradient id="SVGID_4_" gradientUnits="userSpaceOnUse" x1="19.5861" y1="20.0223" x2="58.9658" y2="59.402">
		<stop  offset="0" style="stop-color:#FFFFFF"/>
		<stop  offset="1" style="stop-color:#F3EDD1"/>
	</linearGradient>
	<path fill="url(#SVGID_4_)" d="M68.252,39.891L21.748,19.546c-1.512-0.661-2.342,0.085-1.845,1.658l12.818,40.591
		c0.497,1.573,2.048,2.145,3.447,1.271l7.912-4.945c1.399-0.875,3.624-0.78,4.944,0.21l4.95,3.712
		c1.32,0.99,2.581,0.462,2.802-1.173l1.228-9.085c0.221-1.635,1.553-3.678,2.96-4.541l7.478-4.583
		C69.849,41.799,69.763,40.553,68.252,39.891z M55.035,52.438l-0.12,0.995c-0.183,1.508-0.903,2.407-1.928,2.407
		c-0.674,0-1.386-0.407-2.06-1.178l-23.17-26.479c-1.07-1.224-1.183-1.579-1.03-1.916l0.134-0.293l0.382-0.031
		c0.221,0,0.534,0.078,1.694,1.005l23.269,18.572C54.051,46.992,55.32,50.095,55.035,52.438z"/>
</g>
</svg>
