<?xml version="1.0" encoding="utf-8"?>
<!-- Generator: Adobe Illustrator 17.0.1, SVG Export Plug-In . SVG Version: 6.00 Build 0)  -->
<!DOCTYPE svg PUBLIC "-//W3C//DTD SVG 1.1//EN" "http://www.w3.org/Graphics/SVG/1.1/DTD/svg11.dtd">
<svg version="1.1" xmlns="http://www.w3.org/2000/svg" xmlns:xlink="http://www.w3.org/1999/xlink" x="0px" y="0px" width="86px"
	 height="86px" viewBox="0 0 86 86" enable-background="new 0 0 86 86" xml:space="preserve">
<g id="Layer_2" display="none">
</g>
<g id="Layer_1">
	<g>
		
			<radialGradient id="SVGID_1_" cx="40.4091" cy="43.466" r="42.6105" gradientTransform="matrix(1.0021 0 0 1.0021 2.506 -0.5573)" gradientUnits="userSpaceOnUse">
			<stop  offset="0" style="stop-color:#868688"/>
			<stop  offset="1" style="stop-color:#DADADA"/>
		</radialGradient>
		<circle fill="url(#SVGID_1_)" cx="43" cy="43" r="42.7"/>
	</g>
	<g>
		<g>
			<path fill="#0057B3" d="M43.001,24.965c3.285,0,6.356,0.893,9.009,2.428c3.264-5.655,6.164-10.677,6.164-10.677
				c-4.469-2.59-9.649-4.081-15.175-4.081c-5.527,0-10.706,1.491-15.175,4.081c-4.603,2.668-8.442,6.506-11.109,11.109l10.681,6.167
				C30.514,28.602,36.328,24.965,43.001,24.965z"/>
		</g>
		<g>
			<path fill="#00CCFF" d="M58.604,33.99l10.678-6.165c-2.668-4.603-6.506-8.441-11.108-11.108L52.01,27.394
				C54.745,28.978,57.022,31.254,58.604,33.99z"/>
		</g>
		<g>
			<path fill="#E600FF" d="M24.974,42.992c0-3.282,0.891-6.349,2.424-9l-10.681-6.167c-2.59,4.468-4.081,9.649-4.081,15.174h12.339
				C24.974,42.998,24.974,42.995,24.974,42.992z"/>
		</g>
		<g>
			<path fill="#FFAA00" d="M43.001,61.019h-0.002v12.345c5.525,0,10.706-1.491,15.174-4.08l-6.171-10.689
				C49.352,60.129,46.284,61.019,43.001,61.019z"/>
		</g>
		<g>
			<path fill="#1AB300" d="M69.284,27.826l-10.68,6.165c1.533,2.651,2.424,5.719,2.424,9.001c0,6.674-3.635,12.486-9.026,15.602
				c3.268,5.659,6.172,10.689,6.172,10.689c4.602-2.667,8.441-6.506,11.109-11.109c2.591-4.468,4.081-9.649,4.081-15.174V43
				C73.364,37.474,71.874,32.294,69.284,27.826z"/>
		</g>
		<g>
			<path fill="#B30000" d="M24.974,43.001H12.635c0,5.525,1.491,10.706,4.081,15.174v0.001c2.668,4.602,6.506,8.44,11.108,11.108
				c4.469,2.59,9.649,4.081,15.175,4.081V61.019C33.047,61.018,24.979,52.952,24.974,43.001z"/>
		</g>
		<g>
			<path fill="#FFFFFF" d="M42.999,61.029c-9.941,0-18.029-8.088-18.029-18.029c0-9.941,8.088-18.029,18.029-18.029
				S61.029,33.059,61.029,43C61.029,52.941,52.941,61.029,42.999,61.029z"/>
		</g>
	</g>
</g>
</svg>
