<?xml version="1.0" encoding="utf-8"?>
<!-- Generator: Adobe Illustrator 17.0.1, SVG Export Plug-In . SVG Version: 6.00 Build 0)  -->
<!DOCTYPE svg PUBLIC "-//W3C//DTD SVG 1.1//EN" "http://www.w3.org/Graphics/SVG/1.1/DTD/svg11.dtd">
<svg version="1.1" xmlns="http://www.w3.org/2000/svg" xmlns:xlink="http://www.w3.org/1999/xlink" x="0px" y="0px" width="86px"
	 height="86px" viewBox="0 0 86 86" enable-background="new 0 0 86 86" xml:space="preserve">
<g id="Layer_2" display="none">
</g>
<g id="Layer_1">
	
		<radialGradient id="SVGID_1_" cx="43.2205" cy="43.2221" r="42.7984" gradientTransform="matrix(0.9977 0 0 0.9977 -0.1211 -0.1227)" gradientUnits="userSpaceOnUse">
		<stop  offset="0" style="stop-color:#3FA17F"/>
		<stop  offset="1" style="stop-color:#A1D2D4"/>
	</radialGradient>
	<path fill="url(#SVGID_1_)" d="M85.7,84.277c0,0.786-0.637,1.423-1.423,1.423H1.723c-0.786,0-1.423-0.637-1.423-1.423V1.723
		C0.3,0.937,0.937,0.3,1.723,0.3h82.553c0.786,0,1.423,0.637,1.423,1.423V84.277z"/>
	<g>
		<path fill="#20473E" d="M75.098,62.785c0,0.891-0.852,1.614-1.902,1.614H12.804c-1.051,0-1.902-0.723-1.902-1.614V11.543
			c0-0.891,0.852-1.614,1.902-1.614h60.392c1.051,0,1.902,0.723,1.902,1.614V62.785z"/>
	</g>
	<path fill="#00FF14" d="M40.327,29.437L22.33,21.741c-0.935-0.4-1.702,0.092-1.702,1.093v0.914v0.656v0.914
		c0,1.001,0.766,2.147,1.701,2.548l12.037,5.157c0.189,0.081,0.329,0.174,0.441,0.271c-0.112,0.098-0.253,0.191-0.441,0.271
		l-12.037,5.157c-0.935,0.4-1.701,1.547-1.701,2.55v0.914v0.609v0.914c0,1.002,0.767,1.496,1.703,1.096l17.993-7.657
		c0.936-0.398,1.702-1.543,1.702-2.545V33.69v-0.791v-0.914C42.027,30.983,41.261,29.838,40.327,29.437z"/>
	<path fill="#00FF14" d="M62.543,48.836H44.855c-1.021,0-1.855,0.935-1.855,2.076v0.795v0.093v0.795
		c0,1.142,0.834,2.077,1.855,2.077h17.688c1.021,0,1.855-0.935,1.855-2.077v-0.795v-0.093v-0.795
		C64.399,49.771,63.564,48.836,62.543,48.836z"/>
</g>
</svg>
