<?xml version="1.0" encoding="utf-8"?>
<!-- Generator: Adobe Illustrator 17.0.1, SVG Export Plug-In . SVG Version: 6.00 Build 0)  -->
<!DOCTYPE svg PUBLIC "-//W3C//DTD SVG 1.1//EN" "http://www.w3.org/Graphics/SVG/1.1/DTD/svg11.dtd">
<svg version="1.1" xmlns="http://www.w3.org/2000/svg" xmlns:xlink="http://www.w3.org/1999/xlink" x="0px" y="0px" width="86px"
	 height="86px" viewBox="0 0 86 86" enable-background="new 0 0 86 86" xml:space="preserve">
<g id="Layer_2" display="none">
</g>
<g id="Layer_1">
	<linearGradient id="SVGID_1_" gradientUnits="userSpaceOnUse" x1="0.7169" y1="85.2831" x2="85.2831" y2="0.7169">
		<stop  offset="0" style="stop-color:#EB424A"/>
		<stop  offset="1" style="stop-color:#FF7500"/>
	</linearGradient>
	<path fill="url(#SVGID_1_)" d="M84.277,0.3H43C19.417,0.3,0.3,19.418,0.3,43v41.277c0,0.786,0.637,1.423,1.423,1.423H43
		c23.583,0,42.7-19.118,42.7-42.7V1.723C85.7,0.937,85.063,0.3,84.277,0.3z"/>
	<g>
		<path fill="#FCBA03" d="M75.022,12.586c0-1.611,0-1.611-1.779-1.611c0,0-29.768,0-30.244,0c-17.686,0-32.024,12.983-32.024,28.999
			c0,16.016,10.977,15.862,32.024,15.862c17.844,0,32.023-12.983,32.023-28.999C75.022,26.405,75.022,12.586,75.022,12.586z"/>
	</g>
	<path opacity="0.7" fill="#89E700" d="M44.176,57.633c-5.264-10.316-16.352-17.443-29.15-17.443h-3.783
		c-0.169,1.277-0.266,2.574-0.268,3.893c0.004,4.865,1.192,9.469,3.298,13.569c5.278,10.279,16.343,17.373,29.113,17.373h4.052
		v-3.869C47.437,66.309,46.264,61.721,44.176,57.633z"/>
	<path fill="#FC8272" d="M0.3,54.763c7.055-1.559,10.675-5.385,10.675-14.788c0-6.308-2.132-12.141-5.74-16.9
		C2.089,29.024,0.3,35.802,0.3,43V54.763z"/>
	<path opacity="0.6" fill="#D1A5FF" d="M7.824,57.652c2.012-4.099,3.147-8.703,3.151-13.569c-0.002-1.319-0.095-2.617-0.256-3.893
		H7.104c-2.319,0-4.578,0.259-6.752,0.744C0.319,41.619,0.3,42.307,0.3,43v24.415C3.413,64.706,5.988,61.394,7.824,57.652z"/>
</g>
</svg>
