<?xml version="1.0" encoding="utf-8"?>
<!-- Generator: Adobe Illustrator 17.0.1, SVG Export Plug-In . SVG Version: 6.00 Build 0)  -->
<!DOCTYPE svg PUBLIC "-//W3C//DTD SVG 1.1//EN" "http://www.w3.org/Graphics/SVG/1.1/DTD/svg11.dtd">
<svg version="1.1" xmlns="http://www.w3.org/2000/svg" xmlns:xlink="http://www.w3.org/1999/xlink" x="0px" y="0px" width="86px"
	 height="86px" viewBox="0 0 86 86" enable-background="new 0 0 86 86" xml:space="preserve">
<g id="Layer_2" display="none">
</g>
<g id="Layer_1">
	<linearGradient id="SVGID_1_" gradientUnits="userSpaceOnUse" x1="85.2831" y1="0.7169" x2="0.7169" y2="85.2831">
		<stop  offset="0.0054" style="stop-color:#51EAEE"/>
		<stop  offset="1" style="stop-color:#00B4E6"/>
	</linearGradient>
	<path fill="url(#SVGID_1_)" d="M84.277,0.3H43C19.417,0.3,0.3,19.418,0.3,43v41.277c0,0.786,0.637,1.423,1.423,1.423H43
		c23.583,0,42.7-19.118,42.7-42.7V1.723C85.7,0.937,85.063,0.3,84.277,0.3z"/>
	<g>
		<path fill="#FFFFFF" d="M76.431,40.966c-0.067-0.137-0.166-0.294-0.343-0.302c-0.16-0.009-0.332,0.103-0.529,0.333
			c0,0-3.828,6.598-7.15,5.454c-0.73-0.252-0.995-0.655-0.995-0.762c0.005-0.513,0.238-1.387,0.525-1.897
			c0.052-0.088,1.234-2.17,1.657-3.756c0.351-1.322,0.517-3.424-0.472-3.815c-0.2-0.085-0.343-0.125-0.446-0.129
			c-0.03-0.001-0.13-0.005-0.214,0.084c-0.233,0.253-0.599,0.517-0.865,0.398c-0.364-0.159-1.118-0.245-1.946-0.132
			c-2.433,0.325-5.453,2.66-7.346,7.191c-0.072,0.094-2.42,2.492-3.412,2.455c-0.1-0.172-0.236-0.685-0.141-1.793
			c0.074-0.944,0.338-2.578,1.154-5.022l0.001-0.003c8.228-8.818,12.268-15.174,11.68-18.389c-0.142-0.786-0.571-1.375-1.233-1.701
			c-0.21-0.104-0.492-0.125-0.694-0.125c-0.61,0-2.831,0.23-5.55,3.216c-2.861,3.141-5.277,8.193-7.189,15.019
			c-0.293,1.069-0.566,2.095-0.808,3.057c-0.532,0.497-1.053,1.003-1.565,1.497c-2.033,1.974-4.141,4.016-5.191,4.016
			c-0.112,0-0.209-0.03-0.293-0.089c-0.078-0.094-0.277-0.704-0.109-2.307c0.168-1.503,0.598-3.366,1.232-5.254
			c8.201-8.79,12.089-14.756,11.549-17.732c-0.152-0.773-0.584-1.358-1.281-1.697c-0.207-0.103-0.491-0.129-0.69-0.129
			c-0.611,0-2.831,0.234-5.55,3.219c-2.854,3.132-5.266,8.167-7.173,14.962c-0.233,0.294-1.308,1.264-1.947,1.659
			c-0.142-1.097-1.062-1.941-2.006-2.165c-0.219-0.048-0.448-0.077-0.674-0.077c-1.23,0-2.374,0.765-3.333,1.513
			c-1.147,0.893-2.472,2.08-3.583,4.074c-1.505,2.71-2.742,7.092-0.785,8.362c0.442,0.288,0.936,0.437,1.46,0.437
			c0.001,0,0,0,0.001,0c2.661,0,5.473-3.706,6.33-5.133c0.917-1.517,1.83-3.496,2.309-4.762c0.447-0.144,0.948-0.379,1.411-0.627
			c-1.135,4.778-1.193,7.743-0.185,9.037c0.386,0.497,0.915,0.754,1.575,0.754c1.03,0,2.133-0.628,2.875-1.093
			c0.731-0.458,2.446-2.007,4.764-4.298c-0.269,2.09-0.077,3.501,0.583,4.298c0.393,0.471,0.926,0.709,1.591,0.709
			c0.747,0,1.542-0.311,2.216-0.663c0.908-0.442,1.666-0.945,1.709-0.983c0.182-0.152,0.385-0.231,0.563-0.224
			c0.194,0.006,0.354,0.101,0.435,0.27c0.032,0.073,1.114,1.818,2.339,1.818c2.04,0,3.416-1.538,3.499-1.608
			c0.154-0.131,0.329-0.197,0.479-0.19c0.196,0.007,0.341,0.185,0.476,0.354c0.235,0.293,1.383,1.278,2.702,1.333
			c2.036,0.081,4.007-0.862,5.783-2.768c0.568-0.61,2.991-4.267,2.995-4.765C76.626,41.796,76.567,41.246,76.431,40.966z
			 M63.419,22.308c1.039,3.66-3.803,9.816-6.316,12.849C58.646,30.176,62.206,24.251,63.419,22.308z M53.518,21.874
			c1.079,3.587-3.663,9.142-6.188,12.048C48.848,29.056,52.324,23.653,53.518,21.874z M36.015,44.989
			c-0.625,0.663-1.24,1.063-1.654,1.063c-0.049,0-0.099-0.007-0.141-0.023c-0.415-0.136-0.67-0.444-0.775-0.951
			c-0.248-1.167,0.336-2.889,0.805-3.852c0.202,0.335,0.541,0.657,1.093,0.841c0.313,0.105,0.641,0.162,0.975,0.162
			c0.535,0,1.021-0.141,1.422-0.297C37.547,42.857,36.882,44.062,36.015,44.989z M66.124,40.725
			c-0.003,0.015-1.261,3.562-1.583,4.019c-0.268,0.377-1.188,1.277-2.203,1.153c-0.565-0.064-1.701-1.012-1.247-2.412
			c0.842-2.601,2.755-4.236,4.111-4.24C66.239,39.238,66.31,40.227,66.124,40.725z M29.722,31.836
			c-0.373,0.421-0.929,0.675-1.483,0.675l0,0c-0.727,0-1.318-0.41-1.623-1.128c-0.492-1.154-0.763-2.499,0.948-3.678
			c0.191-0.134,0.395-0.203,0.605-0.203c0.875,0,1.543,1.146,1.787,1.64C30.504,30.248,30.438,31.032,29.722,31.836z M28.032,47.098
			c0.321-0.914,0.617-1.741,0.879-2.472c1.022-2.827,1.583-4.39,1.547-5.725c-0.036-1.292-0.668-2.38-1.569-2.696
			c-0.167-0.059-0.342-0.09-0.52-0.09c-0.678,0-1.237,0.407-1.512,0.763c-0.351,0.457-0.251,1.065-0.151,1.653
			c0.043,0.258,0.09,0.522,0.096,0.781c0.043,1.484-0.883,5.299-1.401,6.599c-0.432,1.085-4.656,4.405-5.437,4.974
			c-2.916,2.131-8.144,6.429-10.396,11.295c-1.845,3.994-0.478,6.051-0.315,6.27l0.011,0.014c0.704,0.968,1.615,1.172,2.254,1.172
			l0,0c0.716,0,1.511-0.247,2.364-0.736c3.457-1.978,9.394-10.534,11.828-16.153c0.148-0.349,0.859-1.825,1.052-2.053
			c0.067-0.082,0.287-0.216,0.501-0.336c0.299-0.178,0.64-0.38,0.798-0.573c0.289-0.346,0.554-1.087,0.039-1.593
			c-0.376-0.374-0.268-0.62-0.142-0.908C27.981,47.223,28.01,47.159,28.032,47.098z M11.994,63.423
			c-0.25-1.156,1.582-3.822,2.96-5.35l0.048-0.052c1.476-1.632,2.369-2.612,4.403-4.179c1.856-1.431,2.698-1.797,3.073-1.866
			c-0.203,0.547-0.493,1.232-1.156,2.327c-2.829,4.662-6.728,9.68-8.591,9.68c-0.12,0-0.23-0.022-0.326-0.066
			C12.18,63.822,12.045,63.661,11.994,63.423z"/>
	</g>
</g>
</svg>
