<?xml version="1.0" encoding="utf-8"?>
<!-- Generator: Adobe Illustrator 17.0.1, SVG Export Plug-In . SVG Version: 6.00 Build 0)  -->
<!DOCTYPE svg PUBLIC "-//W3C//DTD SVG 1.1//EN" "http://www.w3.org/Graphics/SVG/1.1/DTD/svg11.dtd">
<svg version="1.1" xmlns="http://www.w3.org/2000/svg" xmlns:xlink="http://www.w3.org/1999/xlink" x="0px" y="0px" width="86px"
	 height="86px" viewBox="0 0 86 86" enable-background="new 0 0 86 86" xml:space="preserve">
<g id="Layer_2" display="none">
</g>
<g id="Layer_1">
	<linearGradient id="SVGID_1_" gradientUnits="userSpaceOnUse" x1="79.2383" y1="91.3279" x2="6.7619" y2="18.8514">
		<stop  offset="0" style="stop-color:#2BBD99"/>
		<stop  offset="0.9951" style="stop-color:#008344"/>
	</linearGradient>
	<path fill="url(#SVGID_1_)" d="M43,0.3C19.417,0.3,0.3,19.418,0.3,43c0,0.408,0,41.277,0,41.277c0,0.786,0.637,1.423,1.423,1.423
		h82.553c0.786,0,1.423-0.637,1.423-1.423c0,0,0-40.908,0-41.277C85.7,19.418,66.583,0.3,43,0.3z"/>
	<g>
		<path fill="#D7CA95" d="M10.6,33.725c0-0.786,0.647-1.424,1.445-1.424h61.909c0.798,0,1.445,0.638,1.445,1.424v39.949
			c0,0.786-0.647,1.424-1.445,1.424H12.045c-0.798,0-1.445-0.638-1.445-1.424V33.725z"/>
	</g>
	<path opacity="0.3" fill="#FEFFAB" d="M60.093,59.403c-0.063-0.066-0.131-0.125-0.201-0.174c-0.231-0.266-0.466-0.528-0.711-0.785
		c-9.056-9.527-23.74-9.527-32.796,0c-0.244,0.257-0.479,0.52-0.709,0.785c-0.072,0.049-0.14,0.107-0.202,0.174l-14.126,14.86
		c0.354,0.373,0.62,0.437,1.005,0.437h61.113c0.372,0,0.639-0.07,0.868-0.31L60.093,59.403z"/>
	<path opacity="0.7" fill="#F6FFED" d="M11.3,32.701l14.224,14.928c0.063,0.066,0.131,0.125,0.202,0.174
		c0.232,0.268,0.468,0.53,0.714,0.789c9.105,9.563,23.868,9.563,32.973,0c0.245-0.259,0.482-0.523,0.713-0.789
		c0.072-0.049,0.14-0.108,0.203-0.174L74.7,32.6c-0.247-0.259-0.565-0.363-0.925-0.363H12.332
		C11.959,32.237,11.558,32.43,11.3,32.701z"/>
</g>
</svg>
