<?xml version="1.0" encoding="utf-8"?>
<!-- Generator: Adobe Illustrator 17.0.1, SVG Export Plug-In . SVG Version: 6.00 Build 0)  -->
<!DOCTYPE svg PUBLIC "-//W3C//DTD SVG 1.1//EN" "http://www.w3.org/Graphics/SVG/1.1/DTD/svg11.dtd">
<svg version="1.1" xmlns="http://www.w3.org/2000/svg" xmlns:xlink="http://www.w3.org/1999/xlink" x="0px" y="0px" width="86px"
	 height="86px" viewBox="0 0 86 86" enable-background="new 0 0 86 86" xml:space="preserve">
<g id="Layer_2" display="none">
</g>
<g id="Layer_1">
	
		<radialGradient id="SVGID_1_" cx="43.2271" cy="42.8152" r="42.8006" gradientTransform="matrix(0.9977 0 0 0.9976 -0.1277 0.2876)" gradientUnits="userSpaceOnUse">
		<stop  offset="0" style="stop-color:#7B7B7D"/>
		<stop  offset="1" style="stop-color:#DADADA"/>
	</radialGradient>
	<path fill="url(#SVGID_1_)" d="M85.7,42.981C85.7,19.409,66.583,0.3,43,0.3S0.3,19.409,0.3,42.981c0,0.635,0.021,1.267,0.049,1.897
		C0.316,45.031,0.3,45.19,0.3,45.352v38.925c0,0.786,0.637,1.423,1.423,1.423h82.553c0.786,0,1.423-0.637,1.423-1.423V45.352
		c0-0.162-0.016-0.321-0.049-0.474C85.679,44.248,85.7,43.616,85.7,42.981z"/>
	<path fill="#C4C4C4" d="M43.461,62.569c-10.535,0-19.108-8.569-19.108-19.102c0-10.532,8.573-19.101,19.108-19.101
		c10.536,0,19.109,8.569,19.109,19.101C62.57,54,53.998,62.569,43.461,62.569z"/>
	<g>
		<path fill="#88817F" d="M24.072,45.868v-2.339c0-10.462,8.516-18.974,18.983-18.974c10.467,0,18.983,8.511,18.983,18.974v2.339
			h12.987v-2.339c0-17.621-14.342-31.956-31.97-31.956c-17.628,0-31.97,14.336-31.97,31.956v2.339H24.072z"/>
	</g>
	<linearGradient id="SVGID_2_" gradientUnits="userSpaceOnUse" x1="11.1852" y1="95.7514" x2="145.4322" y2="-38.4956">
		<stop  offset="0" style="stop-color:#81888B"/>
		<stop  offset="1" style="stop-color:#BAB8BA"/>
	</linearGradient>
	<path opacity="0.7" fill="url(#SVGID_2_)" d="M0.301,43.006c0,0.627,0.02,1.25,0.048,1.872C0.316,45.031,0.3,45.19,0.3,45.352
		v38.925c0,0.786,0.637,1.423,1.423,1.423h82.553c0.786,0,1.423-0.637,1.423-1.423V45.352c0-0.162-0.016-0.321-0.049-0.474
		c0.027-0.621,0.047-1.245,0.048-1.872H0.301z"/>
	<path opacity="0.9" fill="#F3B344" d="M11.1,44.217V85.7h63.8V44.217c0-0.514-0.274-0.961-0.681-1.211H11.781
		C11.374,43.257,11.1,43.703,11.1,44.217z"/>
	<path fill="#995C00" d="M50.693,70.244c0-4.144-3.361-7.502-7.506-7.502c-4.145,0-7.505,3.359-7.505,7.502
		c0,2.903,1.652,5.417,4.067,6.663l-0.676,8.78h8.227l-0.677-8.78C49.04,75.66,50.693,73.147,50.693,70.244z"/>
</g>
</svg>
