<?xml version="1.0" encoding="utf-8"?>
<!-- Generator: Adobe Illustrator 17.0.1, SVG Export Plug-In . SVG Version: 6.00 Build 0)  -->
<!DOCTYPE svg PUBLIC "-//W3C//DTD SVG 1.1//EN" "http://www.w3.org/Graphics/SVG/1.1/DTD/svg11.dtd">
<svg version="1.1" xmlns="http://www.w3.org/2000/svg" xmlns:xlink="http://www.w3.org/1999/xlink" x="0px" y="0px" width="86px"
	 height="86px" viewBox="0 0 86 86" enable-background="new 0 0 86 86" xml:space="preserve">
<g id="Layer_2" display="none">
</g>
<g id="Layer_1">
	<linearGradient id="SVGID_1_" gradientUnits="userSpaceOnUse" x1="0.7171" y1="85.2833" x2="73.1939" y2="12.8066">
		<stop  offset="0" style="stop-color:#CF6C35"/>
		<stop  offset="1" style="stop-color:#E6C000"/>
	</linearGradient>
	<path fill="url(#SVGID_1_)" d="M43,0.3C19.418,0.3,0.3,19.418,0.3,43v41.277c0,0.786,0.637,1.423,1.423,1.423H43
		c23.585,0,42.7-19.118,42.7-42.7C85.7,19.418,66.585,0.3,43,0.3z"/>
	<path opacity="0.9" fill="#F4F3C5" d="M37.21,71.683l0.901-2.174c0.376-0.91,1.306-1.464,2.286-1.362
		c1.729,0.18,3.479,0.179,5.203-0.001c0.98-0.103,1.912,0.452,2.289,1.362l0.901,2.176c0.745,1.798,2.819,2.657,4.619,1.911
		l3.866-1.601c1.745-0.724,2.636-2.872,1.914-4.621L58.287,65.2c-0.377-0.911-0.113-1.96,0.654-2.58
		c1.346-1.091,2.584-2.329,3.681-3.679c0.621-0.765,1.67-1.03,2.58-0.654l2.174,0.901c1.8,0.746,3.872-0.112,4.618-1.914
		l1.601-3.865c0.747-1.801-0.111-3.873-1.913-4.619l-2.174-0.9c-0.91-0.377-1.464-1.306-1.362-2.286
		c0.18-1.729,0.179-3.479-0.001-5.203c-0.105-0.98,0.451-1.911,1.362-2.289l2.176-0.9c1.741-0.721,2.634-2.873,1.912-4.621
		l-1.601-3.865c-0.746-1.799-2.818-2.658-4.62-1.913l-2.175,0.9c-0.91,0.377-1.96,0.112-2.58-0.654
		c-1.092-1.346-2.33-2.585-3.679-3.68c-0.764-0.621-1.03-1.67-0.653-2.58l0.901-2.174c0.746-1.801-0.112-3.873-1.914-4.619
		l-3.866-1.601c-1.801-0.746-3.873,0.112-4.619,1.913l-0.901,2.174c-0.376,0.91-1.306,1.464-2.286,1.362
		c-1.728-0.18-3.48-0.179-5.203,0.001c-0.98,0.103-1.912-0.452-2.289-1.362l-0.901-2.176c-0.745-1.798-2.819-2.657-4.619-1.911
		l-3.866,1.601c-1.743,0.723-2.636,2.871-1.913,4.621l0.9,2.174c0.232,0.559,0.221,1.171,0,1.704
		c-0.138,0.334-0.358,0.637-0.654,0.876c-1.346,1.091-2.584,2.329-3.681,3.678c-0.621,0.765-1.67,1.03-2.58,0.654l-2.174-0.901
		c-1.801-0.746-3.873,0.112-4.619,1.914l-1.601,3.865c-0.746,1.801,0.112,3.873,1.914,4.619l2.173,0.9
		c0.91,0.377,1.464,1.306,1.362,2.286c-0.179,1.729-0.179,3.479,0.002,5.203c0.102,0.98-0.453,1.911-1.362,2.289l-2.177,0.9
		c-1.742,0.722-2.634,2.873-1.912,4.621l1.601,3.865c0.746,1.8,2.819,2.658,4.621,1.913l2.174-0.9c0.91-0.377,1.96-0.112,2.58,0.655
		c1.091,1.346,2.329,2.584,3.679,3.68c0.764,0.621,1.03,1.67,0.653,2.58l-0.9,2.174c-0.746,1.801,0.112,3.873,1.914,4.619
		l3.865,1.601C34.392,74.342,36.464,73.484,37.21,71.683z M29.853,37.555c3.008-7.26,11.331-10.708,18.591-7.701
		c7.261,3.007,10.708,11.331,7.701,18.592c-3.007,7.26-11.331,10.708-18.591,7.701C30.295,53.139,26.846,44.815,29.853,37.555z"/>
	<path opacity="0.9" fill="#FFCB7B" d="M24.848,76.339l-2.75-0.736c-0.789-0.211-1.391-0.845-1.565-1.645
		c-0.07-0.325-0.15-0.624-0.252-0.94c-0.246-0.771-0.044-1.63,0.534-2.208l2.015-2.014c0.822-0.822,1.145-2.033,0.844-3.157
		c-0.147-0.55-0.439-1.056-0.845-1.461l-1.027-1.027c-1.273-1.273-3.345-1.273-4.619,0l-2.017,2.016
		c-0.573,0.573-1.418,0.781-2.191,0.537c-0.314-0.098-0.634-0.182-0.958-0.253c-0.796-0.174-1.428-0.777-1.638-1.564l-0.738-2.757
		c-0.467-1.74-2.261-2.776-4-2.309l-1.402,0.375c-1.739,0.466-2.776,2.261-2.309,4l0.739,2.758c0.21,0.787-0.034,1.625-0.637,2.174
		c-0.246,0.223-0.481,0.457-0.705,0.701c-0.282,0.305-0.64,0.514-1.026,0.62v14.827c0,0.786,0.637,1.423,1.423,1.423h14.804
		c0.105-0.4,0.316-0.771,0.634-1.059c0.246-0.222,0.478-0.454,0.701-0.696c0.549-0.598,1.385-0.841,2.169-0.631l2.753,0.739
		c1.739,0.465,3.533-0.57,3.999-2.31l0.377-1.404c0.148-0.552,0.148-1.136,0.001-1.687C26.859,77.527,25.973,76.641,24.848,76.339z
		 M10.627,80.237c-2.128,0.57-4.315-0.692-4.884-2.82c-0.57-2.127,0.693-4.314,2.82-4.884c2.128-0.57,4.314,0.693,4.884,2.82
		C14.017,77.481,12.754,79.668,10.627,80.237z"/>
</g>
</svg>
