<?xml version="1.0" encoding="utf-8"?>
<!-- Generator: Adobe Illustrator 17.0.1, SVG Export Plug-In . SVG Version: 6.00 Build 0)  -->
<!DOCTYPE svg PUBLIC "-//W3C//DTD SVG 1.1//EN" "http://www.w3.org/Graphics/SVG/1.1/DTD/svg11.dtd">
<svg version="1.1" xmlns="http://www.w3.org/2000/svg" xmlns:xlink="http://www.w3.org/1999/xlink" x="0px" y="0px" width="86px"
	 height="86px" viewBox="0 0 86 86" enable-background="new 0 0 86 86" xml:space="preserve">
<g id="Layer_2" display="none">
</g>
<g id="Layer_1">
	<linearGradient id="SVGID_1_" gradientUnits="userSpaceOnUse" x1="0.7171" y1="85.2833" x2="73.1939" y2="12.8066">
		<stop  offset="0" style="stop-color:#AD0029"/>
		<stop  offset="0.6976" style="stop-color:#D01E48"/>
		<stop  offset="1" style="stop-color:#E02D57"/>
	</linearGradient>
	<path fill="url(#SVGID_1_)" d="M43,0.3C19.418,0.3,0.3,19.418,0.3,43v41.277c0,0.786,0.637,1.423,1.423,1.423H43
		c23.585,0,42.7-19.118,42.7-42.7C85.7,19.418,66.585,0.3,43,0.3z"/>
	<g>
		<path fill="#FF1A4F" d="M45.883,40.321c-0.07,0-0.137,0.01-0.206,0.01c0-0.004,0-0.007,0-0.01c0-9.682-7.849-17.532-17.531-17.532
			c-9.682,0-17.532,7.849-17.532,17.532c0,0.521,0,34.101,0,34.101c0,0.531,0.431,0.962,0.962,0.962c0,0,33.726,0,34.306,0
			c9.682,0,17.531-7.849,17.531-17.531C63.414,48.17,55.565,40.321,45.883,40.321z"/>
	</g>
</g>
</svg>
