<?xml version="1.0" encoding="utf-8"?>
<!-- Generator: Adobe Illustrator 17.0.1, SVG Export Plug-In . SVG Version: 6.00 Build 0)  -->
<!DOCTYPE svg PUBLIC "-//W3C//DTD SVG 1.1//EN" "http://www.w3.org/Graphics/SVG/1.1/DTD/svg11.dtd">
<svg version="1.1" xmlns="http://www.w3.org/2000/svg" xmlns:xlink="http://www.w3.org/1999/xlink" x="0px" y="0px" width="86px"
	 height="86px" viewBox="0 0 86 86" enable-background="new 0 0 86 86" xml:space="preserve">
<g id="Layer_2" display="none">
</g>
<g id="Layer_1">
	
		<linearGradient id="SVGID_1_" gradientUnits="userSpaceOnUse" x1="-612" y1="-49.3" x2="-612" y2="-134.7" gradientTransform="matrix(1 0 0 1 655 135)">
		<stop  offset="0" style="stop-color:#008075"/>
		<stop  offset="1" style="stop-color:#00BFAF"/>
	</linearGradient>
	<path fill="url(#SVGID_1_)" d="M43,0.3C19.419,0.3,0.3,19.417,0.3,43v39.285c0,1.879,1.538,3.416,3.416,3.416H43h39.284
		c1.879,0,3.416-1.537,3.416-3.416V43C85.7,19.417,66.583,0.3,43,0.3z"/>
	<g>
		<linearGradient id="SVGID_2_" gradientUnits="userSpaceOnUse" x1="43.0005" y1="85.7" x2="43.0005" y2="12.6351">
			<stop  offset="0" style="stop-color:#CC4100"/>
			<stop  offset="0.7204" style="stop-color:#FF5100"/>
		</linearGradient>
		<path fill="url(#SVGID_2_)" d="M73.767,43.403c0-16.991-13.775-30.767-30.767-30.767c-16.991,0-30.766,13.776-30.766,30.767
			c0,1.853,0.173,3.665,0.487,5.428L16.029,85.7h53.941l3.309-36.869C73.593,47.068,73.767,45.256,73.767,43.403z"/>
	</g>
	<g>
		<path fill="#FF7636" d="M3.047,55.888c-1.305,0.35-2.183,2.054-2.747,4.501v21.896c0,1.879,1.538,3.416,3.416,3.416h16.915
			c0.181-1.298,0.113-2.653-0.249-3.998C18.944,76.334,8.416,54.45,3.047,55.888z"/>
		<path fill="#FF7636" d="M29.466,56.01c-5.367,0.48-7.66,23.918-7.183,29.287c0.012,0.137,0.039,0.268,0.057,0.403h19.335
			c0.091-0.696,0.115-1.411,0.049-2.14C41.246,78.193,34.836,55.531,29.466,56.01z"/>
		<path fill="#FF7636" d="M64.079,85.297c0.478-5.368-1.814-28.807-7.182-29.287c-5.369-0.479-11.779,22.181-12.259,27.55
			c-0.065,0.729-0.042,1.444,0.049,2.14h19.336C64.041,85.565,64.067,85.434,64.079,85.297z"/>
		<path fill="#FF7636" d="M85.7,82.284V59.063c-0.557-1.724-1.331-2.893-2.384-3.176C77.947,54.45,67.42,76.334,65.98,81.702
			c-0.36,1.346-0.43,2.7-0.247,3.998h16.552C84.163,85.7,85.7,84.163,85.7,82.284z"/>
	</g>
	<circle opacity="0.3" cx="28.683" cy="43.402" r="3.983"/>
	<circle opacity="0.3" cx="57.449" cy="43.402" r="3.983"/>
	<g>
		<path fill="#FF9F73" d="M10.231,85.7c-0.007-0.032-0.007-0.063-0.016-0.095c-0.425-1.587-2.054-2.528-3.641-2.103
			c-1.094,0.293-1.87,1.166-2.112,2.198H10.231z"/>
		<circle fill="#FF9F73" cx="5.469" cy="79.38" r="2.522"/>
		<circle fill="#FF9F73" cx="3.596" cy="72.388" r="2.071"/>
		<path fill="#FF9F73" d="M1.304,63.829c-0.45,0.12-0.8,0.419-1.004,0.799v1.534c0.348,0.647,1.101,0.998,1.842,0.799
			c0.866-0.232,1.377-1.12,1.146-1.984C3.056,64.111,2.17,63.597,1.304,63.829z"/>
		<path fill="#FF9F73" d="M14.954,85.7c-0.531-0.315-1.183-0.427-1.826-0.254c-0.211,0.057-0.403,0.148-0.584,0.254H14.954z"/>
		<path fill="#FF9F73" d="M12.967,80.692c0.323,1.06-0.213,2.156-1.204,2.448c-0.986,0.292-2.05-0.331-2.376-1.392
			c-0.324-1.061,0.213-2.157,1.202-2.449C11.578,79.007,12.642,79.63,12.967,80.692z"/>
		<path fill="#FF9F73" d="M9.9,74.258c0.307,0.857-0.015,1.748-0.726,1.993c-0.709,0.245-1.539-0.251-1.849-1.106
			c-0.31-0.856,0.016-1.748,0.725-1.992C8.762,72.907,9.589,73.404,9.9,74.258z"/>
		
			<ellipse transform="matrix(0.9105 -0.4135 0.4135 0.9105 -27.6523 8.6028)" fill="#FF9F73" cx="6.048" cy="68.183" rx="0.863" ry="1.294"/>
		<path fill="#FF9F73" d="M0.996,81.869C0.735,81.932,0.5,82.055,0.3,82.217v0.067c0,1.464,0.939,2.71,2.24,3.193
			c0.599-0.45,0.91-1.266,0.721-2.089C3.011,82.308,1.997,81.628,0.996,81.869z"/>
		<path fill="#FF9F73" d="M0.3,75.265v3.255c0.131,0.02,0.263,0.028,0.398,0.001c0.737-0.143,1.207-0.987,1.048-1.882
			C1.599,75.815,0.973,75.241,0.3,75.265z"/>
		<path fill="#FF9F73" d="M28.135,85.7h5.53c-0.373-1.302-1.624-2.2-3.023-2.076C29.423,83.733,28.455,84.591,28.135,85.7z"/>
		<circle fill="#FF9F73" cx="30.273" cy="79.503" r="2.445"/>
		<circle fill="#FF9F73" cx="29.65" cy="72.511" r="2.008"/>
		<circle fill="#FF9F73" cx="29.025" cy="65.518" r="1.571"/>
		<path fill="#FF9F73" d="M37.218,82.005c0.131,1.068-0.563,2.024-1.558,2.14c-0.991,0.114-1.904-0.659-2.039-1.727
			c-0.132-1.067,0.564-2.026,1.557-2.14C36.171,80.165,37.083,80.937,37.218,82.005z"/>
		<path fill="#FF9F73" d="M35.36,75.348c0.154,0.868-0.305,1.666-1.027,1.782c-0.717,0.115-1.427-0.497-1.581-1.365
			c-0.153-0.868,0.306-1.667,1.026-1.781C34.498,73.868,35.206,74.479,35.36,75.348z"/>
		
			<ellipse transform="matrix(0.9679 -0.2513 0.2513 0.9679 -16.2657 10.4264)" fill="#FF9F73" cx="32.692" cy="68.902" rx="0.837" ry="1.255"/>
		<path fill="#FF9F73" d="M23.885,83.195c0.057,1.075,0.912,1.893,1.911,1.83c0.996-0.064,1.758-0.987,1.701-2.061
			c-0.059-1.074-0.916-1.893-1.911-1.83C24.587,81.2,23.826,82.121,23.885,83.195z"/>
		<path fill="#FF9F73" d="M24.533,76.315c0.002,0.883,0.596,1.586,1.325,1.571c0.728-0.015,1.317-0.742,1.315-1.624
			c-0.004-0.881-0.597-1.585-1.325-1.571C25.119,74.706,24.531,75.433,24.533,76.315z"/>
		
			<ellipse transform="matrix(-0.9971 -0.0756 0.0756 -0.9971 46.7031 140.7643)" fill="#FF9F73" cx="26.017" cy="69.498" rx="0.837" ry="1.255"/>
		<path fill="#FF9F73" d="M58.227,85.7c-0.319-1.109-1.287-1.967-2.506-2.076c-1.399-0.125-2.653,0.773-3.025,2.076H58.227z"/>
		<circle fill="#FF9F73" cx="56.088" cy="79.503" r="2.445"/>
		<circle fill="#FF9F73" cx="56.714" cy="72.51" r="2.009"/>
		<circle fill="#FF9F73" cx="57.338" cy="65.517" r="1.571"/>
		<path fill="#FF9F73" d="M62.48,83.196c-0.059,1.074-0.914,1.892-1.913,1.829c-0.995-0.064-1.757-0.986-1.701-2.06
			c0.06-1.075,0.916-1.894,1.911-1.83C61.776,81.199,62.535,82.121,62.48,83.196z"/>
		<path fill="#FF9F73" d="M61.83,76.314c-0.004,0.882-0.596,1.586-1.325,1.573c-0.726-0.015-1.316-0.742-1.314-1.624
			c0.002-0.882,0.597-1.586,1.325-1.572C61.244,74.706,61.831,75.433,61.83,76.314z"/>
		
			<ellipse transform="matrix(0.9971 -0.0757 0.0757 0.9971 -5.0866 4.7665)" fill="#FF9F73" cx="60.347" cy="69.498" rx="0.836" ry="1.255"/>
		<path fill="#FF9F73" d="M49.146,82.004c-0.133,1.067,0.563,2.025,1.556,2.139c0.992,0.115,1.906-0.658,2.039-1.725
			c0.133-1.068-0.565-2.025-1.557-2.139C50.193,80.165,49.28,80.937,49.146,82.004z"/>
		<path fill="#FF9F73" d="M51.004,75.348c-0.153,0.868,0.304,1.666,1.025,1.781c0.719,0.115,1.43-0.497,1.583-1.366
			c0.152-0.868-0.306-1.666-1.027-1.781C51.866,73.868,51.158,74.479,51.004,75.348z"/>
		
			<ellipse transform="matrix(-0.968 -0.2508 0.2508 -0.968 88.3449 149.0626)" fill="#FF9F73" cx="53.671" cy="68.902" rx="0.837" ry="1.254"/>
		<path fill="#FF9F73" d="M85.7,64.176c-0.18-0.157-0.394-0.281-0.641-0.347c-0.866-0.232-1.754,0.282-1.985,1.147
			c-0.23,0.865,0.28,1.753,1.147,1.984c0.54,0.144,1.088-0.001,1.48-0.341V64.176z"/>
		<path fill="#FF9F73" d="M85.7,82.284v-0.295c-0.106-0.049-0.218-0.091-0.335-0.119c-1.001-0.242-2.015,0.438-2.265,1.52
			c-0.176,0.767,0.086,1.525,0.608,1.988C84.879,84.834,85.7,83.654,85.7,82.284z"/>
		<path fill="#FF9F73" d="M85.7,75.304c-0.524,0.152-0.963,0.663-1.084,1.336c-0.158,0.895,0.313,1.739,1.047,1.882
			c0.013,0.003,0.024,0.001,0.037,0.003V75.304z"/>
		<path fill="#FF9F73" d="M71.409,85.7h2.409c-0.18-0.106-0.371-0.197-0.583-0.254C72.59,85.273,71.939,85.385,71.409,85.7z"/>
		<path fill="#FF9F73" d="M73.396,80.691c-0.326,1.061,0.212,2.157,1.201,2.449c0.987,0.291,2.053-0.331,2.377-1.392
			c0.325-1.061-0.214-2.157-1.201-2.45C74.784,79.007,73.72,79.63,73.396,80.691z"/>
		<path fill="#FF9F73" d="M76.464,74.258c-0.312,0.855,0.014,1.747,0.726,1.992c0.71,0.244,1.538-0.252,1.848-1.107
			c0.31-0.855-0.015-1.747-0.726-1.991C77.601,72.907,76.772,73.403,76.464,74.258z"/>
		
			<ellipse transform="matrix(-0.9104 -0.4137 0.4137 -0.9104 125.2277 163.485)" fill="#FF9F73" cx="80.316" cy="68.183" rx="0.863" ry="1.293"/>
		<path fill="#FF9F73" d="M76.145,85.604c-0.008,0.032-0.008,0.064-0.016,0.096h5.77c-0.242-1.031-1.016-1.905-2.111-2.198
			C78.201,83.077,76.57,84.018,76.145,85.604z"/>
		<circle fill="#FF9F73" cx="80.891" cy="79.38" r="2.522"/>
		<circle fill="#FF9F73" cx="82.766" cy="72.387" r="2.071"/>
	</g>
</g>
</svg>
