<?xml version="1.0" encoding="utf-8"?>
<!-- Generator: Adobe Illustrator 17.0.1, SVG Export Plug-In . SVG Version: 6.00 Build 0)  -->
<!DOCTYPE svg PUBLIC "-//W3C//DTD SVG 1.1//EN" "http://www.w3.org/Graphics/SVG/1.1/DTD/svg11.dtd">
<svg version="1.1" xmlns="http://www.w3.org/2000/svg" xmlns:xlink="http://www.w3.org/1999/xlink" x="0px" y="0px" width="86px"
	 height="86px" viewBox="0 0 86 86" enable-background="new 0 0 86 86" xml:space="preserve">
<g id="Layer_2" display="none">
</g>
<g id="Layer_1">
	<g>
		<linearGradient id="SVGID_1_" gradientUnits="userSpaceOnUse" x1="43" y1="85.7" x2="43" y2="0.3">
			<stop  offset="0" style="stop-color:#534054"/>
			<stop  offset="1" style="stop-color:#7A6E6F"/>
		</linearGradient>
		<circle fill="url(#SVGID_1_)" cx="43" cy="43" r="42.7"/>
	</g>
	<g>
		<path fill="#BFD0D9" d="M54.075,42.893c-0.153,5.888-4.884,10.626-10.768,10.792c1.319,6.874,7.103,12.758,13.353,13.126
			C67.507,67.447,72.371,60.057,76,52.556C81.122,41.961,63.505,43.498,54.075,42.893z"/>
		<path fill="#BFD0D9" d="M31.889,42.6c0-1.907,0.483-3.701,1.33-5.269c-6.613-2.286-14.591-0.215-18.029,5.012
			c-5.972,9.078-2.004,16.985,2.684,23.875c6.619,9.729,14.086-6.294,19.323-14.162C34.017,50.104,31.889,46.605,31.889,42.6z"/>
		<path fill="#BFD0D9" d="M42.991,31.5c3.995,0,7.487,2.118,9.442,5.286c5.295-4.578,7.502-12.528,4.696-18.125
			C52.258,8.948,43.424,8.427,35.114,9.036c-11.73,0.86-1.612,15.332,2.585,23.805C39.271,31.986,41.075,31.5,42.991,31.5z"/>
		<g>
			<path fill="#414042" d="M42.986,38.483c-2.273,0-4.12,1.847-4.12,4.119c0,2.273,1.848,4.12,4.12,4.12
				c2.272,0,4.12-1.847,4.12-4.12C47.106,40.33,45.258,38.483,42.986,38.483z"/>
			<path fill="#FFFFFF" d="M42.986,31.169c-6.315,0-11.434,5.118-11.434,11.433s5.119,11.433,11.434,11.433
				c6.312,0,11.431-5.119,11.431-11.433S49.299,31.169,42.986,31.169z M42.986,46.722c-2.273,0-4.12-1.847-4.12-4.12
				c0-2.272,1.848-4.119,4.12-4.119c2.272,0,4.12,1.847,4.12,4.119C47.106,44.875,45.258,46.722,42.986,46.722z"/>
		</g>
	</g>
</g>
</svg>
