<?xml version="1.0" encoding="utf-8"?>
<!-- Generator: Adobe Illustrator 17.0.1, SVG Export Plug-In . SVG Version: 6.00 Build 0)  -->
<!DOCTYPE svg PUBLIC "-//W3C//DTD SVG 1.1//EN" "http://www.w3.org/Graphics/SVG/1.1/DTD/svg11.dtd">
<svg version="1.1" xmlns="http://www.w3.org/2000/svg" xmlns:xlink="http://www.w3.org/1999/xlink" x="0px" y="0px" width="86px"
	 height="86px" viewBox="0 0 86 86" enable-background="new 0 0 86 86" xml:space="preserve">
<g id="Layer_2" display="none">
</g>
<g id="Layer_1">
	<linearGradient id="SVGID_1_" gradientUnits="userSpaceOnUse" x1="12.8064" y1="12.8066" x2="73.1935" y2="73.1937">
		<stop  offset="0.0054" style="stop-color:#1E9BFF"/>
		<stop  offset="1" style="stop-color:#00C8DE"/>
	</linearGradient>
	<circle fill="url(#SVGID_1_)" cx="43" cy="43" r="42.7"/>
	<g>
		<circle opacity="0.8" fill="#4AE3EA" cx="42.972" cy="42.811" r="32.025"/>
	</g>
	<g>
		<path fill="#F3FFF2" d="M69.064,52.815v-1.809c0-0.48-0.289-0.913-0.732-1.096c-0.444-0.185-0.953-0.083-1.293,0.258l-3.085,3.114
			l-5.236-5.227v-3.942c0-0.656-0.531-1.186-1.186-1.186l-14.495,0.005l-4.462-4.462c-0.445-0.445-1.232-0.445-1.677,0l-4.454,4.462
			h-4.768c-0.315,0-0.616,0.125-0.839,0.347l-4.605,4.606c-0.222,0.222-0.348,0.524-0.348,0.839v4.227
			c0,0.315,0.125,0.616,0.348,0.839l9.876,9.875c0.222,0.222,0.524,0.348,0.839,0.348l9.514-0.006l5.432,5.403l-3.778,3.778
			c-0.35,0.35-0.446,0.881-0.241,1.332c0.049,0.106,0.112,0.203,0.186,0.287c5.217-0.174,10.118-1.592,14.414-3.974
			c0.038-0.117,0.063-0.239,0.062-0.366l-0.012-6.622l10.192-10.192C68.939,53.431,69.064,53.13,69.064,52.815z"/>
		<path fill="#F3FFF2" d="M27.101,16.803c0.086,0.02,0.171,0.045,0.263,0.045l5.06-0.036l-3.109,3.109
			c-0.339,0.34-0.441,0.85-0.257,1.293c0.183,0.444,0.616,0.732,1.096,0.732h1.802c0.315,0,0.616-0.125,0.839-0.347l4.488-4.488
			c0.223-0.222,0.348-0.524,0.348-0.838v-3.475c0-0.656-0.531-1.186-1.186-1.186h-0.675c-8.729,2.007-16.091,7.577-20.477,15.103
			c0.073,0.133,0.168,0.255,0.293,0.355c0.219,0.175,0.48,0.26,0.742,0.26c0.304,0,0.608-0.117,0.839-0.347l9.648-9.647
			C26.964,17.182,27.048,16.996,27.101,16.803z"/>
		<path fill="#F3FFF2" d="M50.59,11.705c-0.289,0.117-0.532,0.336-0.656,0.637c-0.184,0.443-0.082,0.953,0.257,1.293l3.22,3.171
			h-9.907c-0.315,0-0.616,0.125-0.839,0.347l-4.03,4.029c-0.463,0.463-0.463,1.214,0,1.677l2.43,2.431
			c0.341,0.341,0.85,0.444,1.293,0.258c0.443-0.184,0.732-0.616,0.732-1.096l-0.021-2.386l4.014-0.033l-4.014,5.211h-4.985
			c-0.315,0-0.616,0.125-0.839,0.347l-4.787,4.796h-4.1c-0.656,0-1.186,0.531-1.186,1.186v2.965c0,0.656,0.53,1.186,1.186,1.186
			h3.595c0.315,0,0.616-0.125,0.839-0.347l4.922-4.951l4.951,4.951c0.222,0.222,0.524,0.347,0.839,0.347h3.693
			c0.656,0,1.186-0.53,1.186-1.186l-0.006-4.162l5.02-5.146l5.452,5.499l-7.509,0.069c-0.488,0.005-0.924,0.309-1.098,0.764
			c-0.174,0.457-0.05,0.972,0.311,1.301l2.655,2.406c0.219,0.197,0.503,0.307,0.797,0.307l4.822-0.021v5.212
			c0,0.315,0.126,0.616,0.348,0.839l3.636,3.637c0.222,0.222,0.524,0.347,0.839,0.347c0.315,0,0.616-0.125,0.839-0.347l2.576-2.577
			c0.34-0.339,0.441-0.849,0.257-1.293c-0.184-0.444-0.616-0.732-1.096-0.732l-2.521,0.036l5.213-5.244l4.109,4.108
			c0.349,0.35,0.883,0.447,1.33,0.242c0.283-0.129,0.484-0.364,0.596-0.64C74.221,26.826,64.078,14.998,50.59,11.705z"/>
		<path fill="#F3FFF2" d="M37.012,23.875c-0.445-0.199-0.971-0.098-1.316,0.246l-1.171,1.171c-0.342,0.342-0.441,0.856-0.254,1.301
			c0.186,0.438,0.616,0.724,1.092,0.724c0.006,0,0.012,0,0.018,0l1.121-0.017c0.628-0.009,1.141-0.507,1.168-1.135l0.05-1.155
			C37.741,24.523,37.461,24.071,37.012,23.875z"/>
	</g>
</g>
</svg>
