<?xml version="1.0" encoding="utf-8"?>
<!-- Generator: Adobe Illustrator 17.0.1, SVG Export Plug-In . SVG Version: 6.00 Build 0)  -->
<!DOCTYPE svg PUBLIC "-//W3C//DTD SVG 1.1//EN" "http://www.w3.org/Graphics/SVG/1.1/DTD/svg11.dtd">
<svg version="1.1" xmlns="http://www.w3.org/2000/svg" xmlns:xlink="http://www.w3.org/1999/xlink" x="0px" y="0px" width="86px"
	 height="86px" viewBox="0 0 86 86" enable-background="new 0 0 86 86" xml:space="preserve">
<g id="Layer_2" display="none">
	<rect x="-21" y="-19" display="inline" fill="#32332F" width="497" height="300"/>
</g>
<g id="Layer_1">
	<linearGradient id="SVGID_1_" gradientUnits="userSpaceOnUse" x1="12.8065" y1="73.1935" x2="85.2829" y2="0.7171">
		<stop  offset="0" style="stop-color:#88A820"/>
		<stop  offset="0.9951" style="stop-color:#C2DB6B"/>
	</linearGradient>
	<path fill="url(#SVGID_1_)" d="M85.699,1.723c0-0.786-0.637-1.423-1.423-1.423c0,0-40.641,0-41.276,0C19.417,0.3,0.3,19.417,0.3,43
		c0,23.582,19.117,42.7,42.7,42.7S85.7,66.582,85.7,43C85.7,42.364,85.699,1.723,85.699,1.723z"/>
	<g>
		<linearGradient id="SVGID_2_" gradientUnits="userSpaceOnUse" x1="20.3551" y1="65.645" x2="65.645" y2="20.355">
			<stop  offset="0" style="stop-color:#DCDCE0"/>
			<stop  offset="1" style="stop-color:#FFFFFF"/>
		</linearGradient>
		<circle fill="url(#SVGID_2_)" cx="43" cy="43" r="32.025"/>
	</g>
	<g>
		<path fill="#FFFFFF" d="M25.094,34.24c-1.654-0.001-2.995,1.342-2.995,2.995l0.002,12.543c0,1.658,1.343,2.997,2.995,2.998
			c1.655-0.002,2.996-1.341,2.995-2.998l0-12.545C28.091,35.581,26.749,34.239,25.094,34.24"/>
		<path fill="#FFFFFF" d="M49.249,22.977l2.091-3.818c0.112-0.199,0.039-0.455-0.163-0.566c-0.205-0.11-0.457-0.035-0.565,0.166
			l-2.112,3.856c-1.777-0.788-3.766-1.232-5.868-1.23c-2.098-0.002-4.084,0.44-5.855,1.226l-2.114-3.847
			c-0.109-0.203-0.364-0.277-0.563-0.165c-0.203,0.108-0.278,0.363-0.165,0.563l2.092,3.815c-4.11,2.12-6.886,6.156-6.884,10.789
			l26.981-0.003C56.123,29.128,53.352,25.101,49.249,22.977 M36.494,28.876c-0.621-0.001-1.127-0.506-1.128-1.13
			c0-0.621,0.506-1.132,1.129-1.132c0.626-0.001,1.132,0.511,1.132,1.132C37.628,28.369,37.121,28.876,36.494,28.876 M48.78,28.874
			c-0.624,0.001-1.132-0.504-1.131-1.131c0-0.62,0.507-1.131,1.132-1.133c0.62,0.002,1.129,0.513,1.129,1.134
			C49.909,28.368,49.403,28.874,48.78,28.874"/>
		<path fill="#FFFFFF" d="M29.257,54.242c-0.002,1.77,1.427,3.199,3.196,3.198l2.176,0l0.003,6.637c0,1.652,1.342,2.995,2.993,2.996
			c1.655,0,2.996-1.344,2.994-2.998l0-6.635l4.044-0.001l0,6.636c0.001,1.652,1.346,2.997,2.996,2.994
			c1.655,0.001,2.997-1.343,2.996-2.997l-0.002-6.635l2.184-0.001c1.762,0.001,3.196-1.432,3.196-3.198L56.03,34.801l-26.778,0.005
			L29.257,54.242z"/>
		<path fill="#FFFFFF" d="M60.181,34.236c-1.654-0.001-2.995,1.342-2.994,2.996l0.001,12.543c0.001,1.656,1.341,2.996,2.996,2.995
			c1.654,0,2.993-1.339,2.994-2.996l-0.003-12.543C63.175,35.577,61.835,34.236,60.181,34.236"/>
		<path fill="#A4C439" d="M25.094,34.24c-1.654-0.001-2.995,1.342-2.995,2.995l0.002,12.543c0,1.658,1.342,2.996,2.996,2.996
			c1.655,0,2.996-1.339,2.994-2.996l0-12.545C28.091,35.581,26.749,34.239,25.094,34.24 M49.249,22.977l2.091-3.818
			c0.112-0.199,0.038-0.454-0.164-0.566c-0.204-0.108-0.456-0.035-0.564,0.166L48.5,22.616c-1.777-0.791-3.765-1.234-5.869-1.232
			c-2.098-0.002-4.086,0.44-5.855,1.226l-2.114-3.847c-0.11-0.203-0.363-0.276-0.563-0.166c-0.203,0.109-0.278,0.364-0.165,0.563
			l2.092,3.815c-4.11,2.119-6.886,6.155-6.884,10.788l26.981-0.003C56.123,29.128,53.352,25.101,49.249,22.977 M36.494,28.876
			c-0.621-0.001-1.127-0.506-1.128-1.13c0-0.621,0.505-1.132,1.129-1.132c0.626-0.001,1.132,0.511,1.132,1.132
			C37.628,28.369,37.121,28.876,36.494,28.876 M48.78,28.874c-0.624,0.001-1.131-0.505-1.131-1.131
			c0.002-0.62,0.507-1.131,1.132-1.133c0.62,0.002,1.129,0.513,1.129,1.134C49.91,28.368,49.403,28.874,48.78,28.874 M29.252,34.806
			l0.005,19.438c-0.001,1.768,1.429,3.195,3.196,3.196l2.176,0.001l0.003,6.637c0,1.652,1.343,2.996,2.993,2.996
			c1.655,0,2.996-1.344,2.996-2.998l-0.002-6.635l4.044-0.001l0.002,6.636c0,1.651,1.344,2.997,2.994,2.994
			c1.655,0.001,2.997-1.343,2.996-2.997l-0.002-6.635l2.184-0.002c1.763,0.001,3.197-1.428,3.197-3.197l-0.003-19.438L29.252,34.806
			z M63.176,37.231c0-1.654-1.341-2.995-2.995-2.995c-1.654-0.001-2.995,1.342-2.994,2.996l0.002,12.543
			c0,1.656,1.34,2.994,2.995,2.995c1.654,0,2.994-1.339,2.994-2.996L63.176,37.231z"/>
	</g>
</g>
</svg>
