<?xml version="1.0" encoding="UTF-8" standalone="no"?>
<!-- Created with Inkscape (http://www.inkscape.org/) -->

<svg
   xmlns:dc="http://purl.org/dc/elements/1.1/"
   xmlns:cc="http://creativecommons.org/ns#"
   xmlns:rdf="http://www.w3.org/1999/02/22-rdf-syntax-ns#"
   xmlns:svg="http://www.w3.org/2000/svg"
   xmlns="http://www.w3.org/2000/svg"
   xmlns:sodipodi="http://sodipodi.sourceforge.net/DTD/sodipodi-0.dtd"
   xmlns:inkscape="http://www.inkscape.org/namespaces/inkscape"
   width="55mm"
   height="55mm"
   viewBox="0 0 55 55"
   version="1.1"
   id="svg8"
   inkscape:version="0.92.2 (5c3e80d, 2017-08-06)"
   sodipodi:docname="ic_100provegan_black_vectorized.svg"
   inkscape:export-filename="/home/micu/devel/projects/Sailfish/harbour-Berlin-vegan/icons/ic_100provegan_black_265dp.png"
   inkscape:export-xdpi="122.38182"
   inkscape:export-ydpi="122.38182">
  <defs
     id="defs2" />
  <sodipodi:namedview
     id="base"
     pagecolor="#ffffff"
     bordercolor="#666666"
     borderopacity="1.0"
     inkscape:pageopacity="0.0"
     inkscape:pageshadow="2"
     inkscape:zoom="2.8284271"
     inkscape:cx="194.71666"
     inkscape:cy="111.7427"
     inkscape:document-units="mm"
     inkscape:current-layer="layer1"
     showgrid="false"
     inkscape:window-width="1863"
     inkscape:window-height="1044"
     inkscape:window-x="0"
     inkscape:window-y="0"
     inkscape:window-maximized="1" />
  <metadata
     id="metadata5">
    <rdf:RDF>
      <cc:Work
         rdf:about="">
        <dc:format>image/svg+xml</dc:format>
        <dc:type
           rdf:resource="http://purl.org/dc/dcmitype/StillImage" />
        <dc:title></dc:title>
      </cc:Work>
    </rdf:RDF>
  </metadata>
  <g
     inkscape:label="Layer 1"
     inkscape:groupmode="layer"
     id="layer1"
     transform="translate(0,-242)">
    <g
       id="g13"
       transform="matrix(1.125,0,0,1.125,-0.62500004,-36.49999)">
      <g
         id="g9">
        <path
           style="fill:#000000;stroke-width:0.25029385"
           d="M 21.2657,291.61196 C 6.422655,288.566 0.02143493,271.26204 9.3884212,259.50495 20.390229,245.69587 42.62704,252.03546 44.847215,269.61404 46.516005,282.82695 34.243651,294.27517 21.2657,291.61196 Z m 9.791955,-16.11449 3.070558,-7.73499 1.002496,-0.16031 c 1.429305,-0.22857 1.653059,-0.50554 1.653059,-2.04622 v -1.34599 H 32.653955 28.52415 v 1.37451 c 0,1.10343 0.09872,1.43616 0.500583,1.68714 0.27532,0.17193 0.50032,0.42631 0.499997,0.56528 -0.001,0.42757 -3.123459,8.18906 -3.804474,9.45675 l -0.641757,1.19461 -0.685038,-1.31013 c -1.864316,-3.56551 -3.897345,-9.52893 -3.37363,-9.89576 0.391356,-0.27412 0.49616,-0.63531 0.49616,-1.70996 v -1.36244 h -4.129808 -4.129808 v 1.34599 c 0,1.5282 0.218631,1.80679 1.646494,2.09805 l 0.981566,0.20021 2.923281,7.25111 c 1.607805,3.98812 2.976992,7.44823 3.042638,7.68915 0.105249,0.38624 0.474956,0.43801 3.128047,0.43801 h 3.008693 z"
           id="path4523"
           inkscape:connector-curvature="0"
           inkscape:export-filename="/home/micu/devel/projects/Sailfish/harbour-Berlin-vegan/images/ic_100provegan_black_265dp.png"
           inkscape:export-xdpi="159.18849"
           inkscape:export-ydpi="159.18849" />
      </g>
    </g>
  </g>
</svg>
