<?xml version="1.0" encoding="UTF-8" standalone="no"?>
<!-- Generator: Adobe Illustrator 17.0.1, SVG Export Plug-In . SVG Version: 6.00 Build 0)  -->

<svg
   xmlns:dc="http://purl.org/dc/elements/1.1/"
   xmlns:cc="http://creativecommons.org/ns#"
   xmlns:rdf="http://www.w3.org/1999/02/22-rdf-syntax-ns#"
   xmlns:svg="http://www.w3.org/2000/svg"
   xmlns="http://www.w3.org/2000/svg"
   xmlns:sodipodi="http://sodipodi.sourceforge.net/DTD/sodipodi-0.dtd"
   xmlns:inkscape="http://www.inkscape.org/namespaces/inkscape"
   version="1.1"
   x="0px"
   y="0px"
   width="86px"
   height="86px"
   viewBox="0 0 86 86"
   enable-background="new 0 0 86 86"
   xml:space="preserve"
   id="svg2"
   inkscape:version="0.91 r13725"
   sodipodi:docname="icon9.svg"
   inkscape:export-filename="/home/micu/devel/projects/Sailfish/harbour-Berlin-vegan/icons/icon8.svg.png"
   inkscape:export-xdpi="90"
   inkscape:export-ydpi="90"><metadata
     id="metadata25"><rdf:RDF><cc:Work
         rdf:about=""><dc:format>image/svg+xml</dc:format><dc:type
           rdf:resource="http://purl.org/dc/dcmitype/StillImage" /><dc:title /></cc:Work></rdf:RDF></metadata><defs
     id="defs23" /><sodipodi:namedview
     pagecolor="#ffffff"
     bordercolor="#666666"
     borderopacity="1"
     objecttolerance="10"
     gridtolerance="10"
     guidetolerance="10"
     inkscape:pageopacity="0"
     inkscape:pageshadow="2"
     inkscape:window-width="1920"
     inkscape:window-height="986"
     id="namedview21"
     showgrid="false"
     inkscape:zoom="3.8808651"
     inkscape:cx="-24.208321"
     inkscape:cy="38.02863"
     inkscape:window-x="0"
     inkscape:window-y="32"
     inkscape:window-maximized="1"
     inkscape:current-layer="Layer_1" /><g
     id="Layer_2"
     display="none" /><g
     id="Layer_1"><linearGradient
       id="SVGID_1_"
       gradientUnits="userSpaceOnUse"
       x1="-0.12284738"
       y1="86.909882"
       x2="66.756393"
       y2="24.868555"
       gradientTransform="translate(0.07547111,0.01563058)"><stop
         offset="0"
         style="stop-color:#2d9255;stop-opacity:1"
         id="stop7" /><stop
         offset="0.99510002"
         style="stop-color:#8ce689;stop-opacity:1"
         id="stop9" /></linearGradient><path
       d="m 43.075471,0.31563058 c -23.583,0 -42.69999989,19.11799942 -42.69999989,42.69999942 0,0.408 0,41.277 0,41.277 0,0.786 0.63699999,1.423 1.42299999,1.423 l 82.5529999,0 c 0.786,0 1.423,-0.637 1.423,-1.423 0,0 0,-40.908 0,-41.277 10e-4,-23.582 -19.116,-42.69999942 -42.699,-42.69999942 z"
       id="path11"
       style="fill:url(#SVGID_1_)"
       inkscape:connector-curvature="0"
       inkscape:export-xdpi="201.39999"
       inkscape:export-ydpi="201.39999" /><path
       style="fill:#eff7ef;fill-opacity:1"
       d="m 34.150424,77.438262 c -0.552285,-0.147149 -0.602119,-0.855094 -0.602119,-8.553856 l 0,-8.393432 -3.784746,0 -3.784746,0 0,7.366759 c 0,4.051717 -0.12725,7.366758 -0.282776,7.366758 -0.155527,0 -1.003799,-0.250483 -1.885048,-0.556629 l -1.602273,-0.556628 -0.09334,-6.722432 -0.09334,-6.72243 -3.860981,-0.09909 -3.860981,-0.09909 -0.0958,4.779892 -0.0958,4.779891 -1.720339,-1.172817 -1.720339,-1.172815 -0.172034,-5.261972 C 10.351598,58.010894 10.214045,56.973491 9.64673,56.017098 L 8.969733,54.875806 9.732746,54.330917 c 0.663398,-0.473753 0.763014,-0.862885 0.763014,-2.980583 l 0,-2.435695 10.985198,0 10.985199,0 0.676609,-0.876995 0.67661,-0.876996 9.286759,0 9.286759,0 0.563604,0.876996 0.563607,0.876995 11.002237,0 11.00224,0 0,2.306731 c 0,1.965058 0.117251,2.413213 0.791604,3.025622 l 0.791603,0.718895 -0.791603,1.594202 c -0.713425,1.436764 -0.792213,2.08201 -0.797787,6.533623 l -0.0062,4.939419 -1.710162,1.140094 c -0.940575,0.627051 -1.789363,1.140095 -1.88618,1.140095 -0.09681,0 -0.176028,-2.210029 -0.176028,-4.911174 l 0,-4.911172 -3.784747,0 -3.784746,0 0,6.816045 0,6.816047 -1.806356,0.687245 -1.806356,0.687246 -0.09276,-7.514716 -0.09276,-7.514718 -3.86402,0.09912 -3.864023,0.09912 -0.09253,8.227154 c -0.06798,6.044879 -0.204882,8.299919 -0.516102,8.501482 -0.232964,0.150879 -1.081601,0.276744 -1.885859,0.279698 l -1.462289,0.0054 0,-8.594552 0,-8.594553 -5.677119,0 -5.677119,0 0,8.594553 0,8.594552 -1.290255,-0.0407 c -0.70964,-0.02238 -1.561208,-0.112886 -1.892364,-0.20112 z m 6.600603,-32.781774 c -3.347873,-0.671118 -6.100414,-2.732972 -8.254426,-7.426029 -2.375783,-5.17624 -1.937746,-9.959252 1.240576,-13.546088 1.235278,-1.394052 1.261265,-1.474069 0.635551,-1.956975 -1.642065,-1.05956 -2.617082,-2.474003 -3.232898,-4.249745 0,-0.637593 4.662358,-1.624862 6.34515,-1.343606 1.06021,0.1772 1.790092,0.646374 3.031799,1.94887 1.51807,1.592388 1.756189,1.715484 3.318418,1.715484 4.161848,0 8.588797,2.507487 10.473804,5.932508 1.422992,2.585557 1.663547,6.549004 0.587186,9.674632 -1.078735,3.132516 -3.302167,6.730564 -4.767149,7.714396 -2.452158,1.646786 -5.831179,2.247555 -9.378011,1.536553 z m 7.174511,-20.773912 c 0.530102,-0.540468 0.50995,-0.641581 -0.290559,-1.457744 -0.854416,-0.87113 -4.574442,-1.852918 -5.042898,-1.375298 -0.122719,0.125119 -0.02049,0.57566 0.171494,1.13717 l 0.349069,1.020926 -2.373695,-0.484645 c -1.983346,-0.404945 -2.373694,0.22213 -2.373694,0.701628 0,0.883249 1.915521,1.276404 5.61356,1.152167 2.575809,-0.08654 3.512268,-0.25125 3.946723,-0.694204 z"
       id="path3395"
       inkscape:connector-curvature="0"
       sodipodi:nodetypes="sscccssscccccccccsscsscccccccccccsscsscssscccccccccccssscccccccsssssccssssssssssscssss"
       inkscape:export-xdpi="201.39999"
       inkscape:export-ydpi="201.39999" /></g></svg>