<?xml version="1.0" encoding="UTF-8" standalone="no"?>
<!-- Generator: Adobe Illustrator 17.0.1, SVG Export Plug-In . SVG Version: 6.00 Build 0)  -->

<svg
   xmlns:dc="http://purl.org/dc/elements/1.1/"
   xmlns:cc="http://creativecommons.org/ns#"
   xmlns:rdf="http://www.w3.org/1999/02/22-rdf-syntax-ns#"
   xmlns:svg="http://www.w3.org/2000/svg"
   xmlns="http://www.w3.org/2000/svg"
   xmlns:sodipodi="http://sodipodi.sourceforge.net/DTD/sodipodi-0.dtd"
   xmlns:inkscape="http://www.inkscape.org/namespaces/inkscape"
   version="1.1"
   x="0px"
   y="0px"
   width="86px"
   height="86px"
   viewBox="0 0 86 86"
   enable-background="new 0 0 86 86"
   xml:space="preserve"
   id="svg2"
   inkscape:version="0.91 r13725"
   sodipodi:docname="icon-launcher-email.svg"><metadata
     id="metadata25"><rdf:RDF><cc:Work
         rdf:about=""><dc:format>image/svg+xml</dc:format><dc:type
           rdf:resource="http://purl.org/dc/dcmitype/StillImage" /><dc:title></dc:title></cc:Work></rdf:RDF></metadata><defs
     id="defs23" /><sodipodi:namedview
     pagecolor="#ffffff"
     bordercolor="#666666"
     borderopacity="1"
     objecttolerance="10"
     gridtolerance="10"
     guidetolerance="10"
     inkscape:pageopacity="0"
     inkscape:pageshadow="2"
     inkscape:window-width="1920"
     inkscape:window-height="986"
     id="namedview21"
     showgrid="false"
     inkscape:zoom="5.4883721"
     inkscape:cx="59.250983"
     inkscape:cy="22.263158"
     inkscape:window-x="0"
     inkscape:window-y="32"
     inkscape:window-maximized="1"
     inkscape:current-layer="Layer_1" /><g
     id="Layer_2"
     display="none" /><g
     id="Layer_1"><linearGradient
       id="SVGID_1_"
       gradientUnits="userSpaceOnUse"
       x1="79.2383"
       y1="91.3279"
       x2="6.7619"
       y2="18.8514"
       gradientTransform="translate(0.07547111,0.01563058)"><stop
         offset="0"
         style="stop-color:#2BBD99"
         id="stop7" /><stop
         offset="0.9951"
         style="stop-color:#008344"
         id="stop9" /></linearGradient><path
       d="m 43.075471,0.31563058 c -23.583,0 -42.69999989,19.11799942 -42.69999989,42.69999942 0,0.408 0,41.277 0,41.277 0,0.786 0.63699999,1.423 1.42299999,1.423 l 82.5529999,0 c 0.786,0 1.423,-0.637 1.423,-1.423 0,0 0,-40.908 0,-41.277 10e-4,-23.582 -19.116,-42.69999942 -42.699,-42.69999942 z"
       id="path11"
       style="fill:url(#SVGID_1_)"
       inkscape:connector-curvature="0" /><path
       style="fill:#d5ffd5"
       d="m 34.150424,77.43254 c -0.552285,-0.150632 -0.602119,-0.87533 -0.602119,-8.75628 l 0,-8.59206 -3.784746,0 -3.784746,0 0,7.541091 c 0,4.147599 -0.12725,7.54109 -0.282776,7.54109 -0.155527,0 -1.003799,-0.256411 -1.885048,-0.569801 l -1.602273,-0.569801 -0.09334,-6.881515 -0.09334,-6.881514 -3.860981,-0.101442 -3.860981,-0.101438 -0.0958,4.893007 -0.0958,4.893005 -1.720339,-1.200571 -1.720339,-1.20057 -0.172034,-5.386493 C 10.351598,57.545431 10.214045,56.483477 9.64673,55.504453 L 8.969733,54.336152 9.732746,53.778369 c 0.663398,-0.484964 0.763014,-0.883305 0.763014,-3.051118 l 0,-2.493335 10.985198,0 10.985199,0 0.676609,-0.897749 0.67661,-0.897749 9.286759,0 9.286759,0 0.563604,0.897749 0.563607,0.897749 11.002237,0 11.00224,0 0,2.36132 c 0,2.01156 0.117251,2.470321 0.791604,3.097222 l 0.791603,0.735907 -0.791603,1.631928 c -0.713425,1.470764 -0.792213,2.13128 -0.797787,6.688239 l -0.0062,5.056309 -1.710162,1.167073 c -0.940575,0.64189 -1.789363,1.167074 -1.88618,1.167074 -0.09681,0 -0.176028,-2.262328 -0.176028,-5.027394 l 0,-5.027394 -3.784747,0 -3.784746,0 0,6.977344 0,6.977347 -1.806356,0.703508 -1.806356,0.703509 -0.09276,-7.692548 -0.09276,-7.692551 -3.86402,0.10147 -3.864023,0.101471 -0.09253,8.421847 c -0.06798,6.187928 -0.204882,8.496334 -0.516102,8.702666 -0.232964,0.154449 -1.081601,0.283293 -1.885859,0.286317 l -1.462289,0.0055 0,-8.797939 0,-8.797939 -5.677119,0 -5.677119,0 0,8.797939 0,8.797939 -1.290255,-0.04166 c -0.70964,-0.02291 -1.561208,-0.115558 -1.892364,-0.20588 z m 6.600603,-33.557541 c -3.347873,-0.687 -6.100414,-2.797647 -8.254426,-7.601764 -2.375783,-5.298733 -1.937746,-10.194933 1.240576,-13.866651 1.235278,-1.427041 1.261265,-1.508952 0.635551,-2.003285 -1.642065,-1.084634 -2.617082,-2.532549 -3.232898,-4.350314 0,-0.65268 4.662358,-1.663313 6.34515,-1.375402 1.06021,0.181393 1.790092,0.661671 3.031799,1.99499 1.51807,1.63007 1.756189,1.756081 3.318418,1.756081 4.161848,0 8.588797,2.566824 10.473804,6.072897 1.422992,2.646743 1.663547,6.703984 0.587186,9.903578 -1.078735,3.206646 -3.302167,6.889841 -4.767149,7.896954 -2.452158,1.685757 -5.831179,2.300743 -9.378011,1.572916 z M 47.925538,22.60948 c 0.530102,-0.553259 0.50995,-0.656763 -0.290559,-1.492241 -0.854416,-0.891745 -4.574442,-1.896766 -5.042898,-1.407844 -0.122719,0.12808 -0.02049,0.589284 0.171494,1.164081 l 0.349069,1.045085 -2.373695,-0.496113 c -1.983346,-0.414528 -2.373694,0.227386 -2.373694,0.718232 0,0.90415 1.915521,1.306609 5.61356,1.179433 2.575809,-0.08858 3.512268,-0.257197 3.946723,-0.710633 z"
       id="path3395"
       inkscape:connector-curvature="0"
       sodipodi:nodetypes="sscccssscccccccccsscsscccccccccccsscsscssscccccccccccssscccccccsssssccssssssssssscssss" /></g></svg>