<?xml version="1.0" encoding="UTF-8" standalone="no"?>
<!-- Generator: Adobe Illustrator 17.0.1, SVG Export Plug-In . SVG Version: 6.00 Build 0)  -->

<svg
   xmlns:dc="http://purl.org/dc/elements/1.1/"
   xmlns:cc="http://creativecommons.org/ns#"
   xmlns:rdf="http://www.w3.org/1999/02/22-rdf-syntax-ns#"
   xmlns:svg="http://www.w3.org/2000/svg"
   xmlns="http://www.w3.org/2000/svg"
   xmlns:sodipodi="http://sodipodi.sourceforge.net/DTD/sodipodi-0.dtd"
   xmlns:inkscape="http://www.inkscape.org/namespaces/inkscape"
   version="1.1"
   x="0px"
   y="0px"
   width="86px"
   height="86px"
   viewBox="0 0 86 86"
   enable-background="new 0 0 86 86"
   xml:space="preserve"
   id="svg2"
   inkscape:version="0.91 r13725"
   sodipodi:docname="icon10.svg"
   inkscape:export-filename="/home/micu/devel/projects/Sailfish/harbour-Berlin-vegan/BerlinVegan.png"
   inkscape:export-xdpi="90.632317"
   inkscape:export-ydpi="90.632317"><metadata
     id="metadata25"><rdf:RDF><cc:Work
         rdf:about=""><dc:format>image/svg+xml</dc:format><dc:type
           rdf:resource="http://purl.org/dc/dcmitype/StillImage" /><dc:title /></cc:Work></rdf:RDF></metadata><defs
     id="defs23" /><sodipodi:namedview
     pagecolor="#ffffff"
     bordercolor="#666666"
     borderopacity="1"
     objecttolerance="10"
     gridtolerance="10"
     guidetolerance="10"
     inkscape:pageopacity="0"
     inkscape:pageshadow="2"
     inkscape:window-width="1920"
     inkscape:window-height="986"
     id="namedview21"
     showgrid="false"
     inkscape:zoom="3.8808651"
     inkscape:cx="-68.528336"
     inkscape:cy="38.02863"
     inkscape:window-x="0"
     inkscape:window-y="32"
     inkscape:window-maximized="1"
     inkscape:current-layer="Layer_1" /><g
     id="Layer_2"
     display="none" /><g
     id="Layer_1"><linearGradient
       id="SVGID_1_"
       gradientUnits="userSpaceOnUse"
       x1="7.3497148"
       y1="87.425224"
       x2="91.235466"
       y2="48.574608"
       gradientTransform="translate(0.07547111,0.01563058)"><stop
         offset="0"
         style="stop-color:#48917a;stop-opacity:1"
         id="stop7" /><stop
         offset="0.99510002"
         style="stop-color:#5ceb5c;stop-opacity:1"
         id="stop9" /></linearGradient><path
       d="m 43.075471,0.31563058 c -23.583,0 -42.69999989,19.11799942 -42.69999989,42.69999942 0,0.408 0,41.277 0,41.277 0,0.786 0.63699999,1.423 1.42299999,1.423 l 82.5529999,0 c 0.786,0 1.423,-0.637 1.423,-1.423 0,0 0,-40.908 0,-41.277 10e-4,-23.582 -19.116,-42.69999942 -42.699,-42.69999942 z"
       id="path11"
       style="fill:url(#SVGID_1_)"
       inkscape:connector-curvature="0"
       inkscape:export-xdpi="201.39999"
       inkscape:export-ydpi="201.39999" /><path
       style="fill:#fbfdfb;fill-opacity:1"
       d="m 34.150424,75.440284 c -0.552285,-0.145918 -0.602119,-0.847939 -0.602119,-8.482289 l 0,-8.323205 -3.784746,0 -3.784746,0 0,7.305123 c 0,4.017817 -0.12725,7.305122 -0.282776,7.305122 -0.155527,0 -1.003799,-0.248387 -1.885048,-0.551971 l -1.602273,-0.551972 -0.09334,-6.666187 -0.09334,-6.666185 -3.860981,-0.09826 -3.860981,-0.09826 -0.0958,4.739899 -0.0958,4.7399 -1.720339,-1.163005 -1.720339,-1.163001 -0.172034,-5.217947 C 10.351598,56.175459 10.214045,55.146737 9.64673,54.198345 L 8.969733,53.066601 9.732746,52.526272 c 0.663398,-0.46979 0.763014,-0.855666 0.763014,-2.955645 l 0,-2.415317 10.985198,0 10.985199,0 0.676609,-0.869657 0.67661,-0.869659 9.286759,0 9.286759,0 0.563604,0.869659 0.563607,0.869657 11.002237,0 11.00224,0 0,2.287432 c 0,1.948616 0.117251,2.393022 0.791604,3.000307 l 0.791603,0.71288 -0.791603,1.580864 c -0.713425,1.424743 -0.792213,2.064591 -0.797787,6.478958 l -0.0062,4.898092 -1.710162,1.130556 c -0.940575,0.621804 -1.789363,1.130555 -1.88618,1.130555 -0.09681,0 -0.176028,-2.191538 -0.176028,-4.870084 l 0,-4.87008 -3.784747,0 -3.784746,0 0,6.759016 0,6.759019 -1.806356,0.681495 -1.806356,0.681496 -0.09276,-7.451842 -0.09276,-7.451845 -3.86402,0.09829 -3.864023,0.09829 -0.09253,8.158319 c -0.06798,5.994304 -0.204882,8.230477 -0.516102,8.430353 -0.232964,0.149617 -1.081601,0.274428 -1.885859,0.277358 l -1.462289,0.0053 0,-8.522644 0,-8.522645 -5.677119,0 -5.677119,0 0,8.522645 0,8.522644 -1.290255,-0.04036 c -0.70964,-0.02219 -1.561208,-0.111941 -1.892364,-0.199437 z m 6.600603,-32.507498 c -3.347873,-0.665503 -6.100414,-2.710106 -8.254426,-7.363897 -2.375783,-5.132932 -1.937746,-9.875926 1.240576,-13.432752 1.235278,-1.382389 1.261265,-1.461736 0.635551,-1.940602 -1.642065,-1.050695 -2.617082,-2.453304 -3.232898,-4.214188 0,-0.632259 4.662358,-1.611267 6.34515,-1.332365 1.06021,0.175718 1.790092,0.640966 3.031799,1.932564 1.51807,1.579065 1.756189,1.701132 3.318418,1.701132 4.161848,0 8.588797,2.486507 10.473804,5.882872 1.422992,2.563924 1.663547,6.49421 0.587186,9.593687 -1.078735,3.106307 -3.302167,6.674251 -4.767149,7.649852 -2.452158,1.633008 -5.831179,2.22875 -9.378011,1.523697 z m 7.174511,-20.600103 c 0.530102,-0.535946 0.50995,-0.636213 -0.290559,-1.445548 -0.854416,-0.863841 -4.574442,-1.837414 -5.042898,-1.363791 -0.122719,0.124073 -0.02049,0.570844 0.171494,1.127656 l 0.349069,1.012385 -2.373695,-0.480591 c -1.983346,-0.401557 -2.373694,0.220272 -2.373694,0.695758 0,0.875859 1.915521,1.265725 5.61356,1.142527 2.575809,-0.08581 3.512268,-0.249148 3.946723,-0.688396 z"
       id="path3395"
       inkscape:connector-curvature="0"
       sodipodi:nodetypes="sscccssscccccccccsscsscccccccccccsscsscssscccccccccccssscccccccsssssccssssssssssscssss"
       inkscape:export-xdpi="201.39999"
       inkscape:export-ydpi="201.39999"
       inkscape:export-filename="/home/micu/devel/projects/Sailfish/harbour-Berlin-vegan/BerlinVegan.png" /></g></svg>